<svg width="200" height="200" viewBox="0 0 200 200" fill="none" xmlns="http://www.w3.org/2000/svg">
<path d="M17.8524 79.871L17.5111 80.925L10.1952 75.1882L10.5312 74.1503L19.8212 73.7897L19.4799 74.8438L11.6872 75.0621L11.6662 75.1269L17.8524 79.871ZM14.735 78.4317L16.1106 74.1829L17.0025 74.4717L15.6269 78.7205L14.735 78.4317Z" fill="#9BA1A0"/>
<path d="M14.9041 63.0009L22.6227 64.0539L22.6694 63.963L17.3191 58.3009L17.8254 57.3155L24.1234 64.1543L23.6248 65.1246L14.3978 63.9864L14.9041 63.0009Z" fill="#9BA1A0"/>
<path d="M29.4901 55.0499L28.8318 55.9411L23.7158 48.1784L24.3639 47.3009L33.2878 49.9084L32.6295 50.7996L25.1707 48.5325L25.1302 48.5874L29.4901 55.0499ZM26.991 52.6954L29.6443 49.1032L30.3984 49.6602L27.7451 53.2524L26.991 52.6954Z" fill="#9BA1A0"/>
<path d="M32.4266 37.7996L38.6989 43.8679L37.964 44.6275L31.6918 38.5592L32.4266 37.7996Z" fill="#9BA1A0"/>
<path d="M44.327 38.5238L38.8341 31.742L39.6554 31.0768L44.5582 37.1302L47.7107 34.5768L48.3007 35.3054L44.327 38.5238Z" fill="#9BA1A0"/>
<path d="M54.0568 31.2807L53.1013 31.8415L51.4472 22.6928L52.3881 22.1406L59.5694 28.045L58.6139 28.6059L52.646 23.5902L52.5872 23.6247L54.0568 31.2807ZM52.684 28.1335L56.5354 25.8729L57.01 26.6814L53.1585 28.942L52.684 28.1335Z" fill="#9BA1A0"/>
<path d="M65.8958 24.9979L62.6993 16.8771L65.5384 15.7596C66.1041 15.5369 66.6091 15.4511 67.0536 15.5021C67.497 15.5504 67.8731 15.7031 68.1819 15.9601C68.4896 16.2145 68.7215 16.54 68.8776 16.9365C69.015 17.2854 69.0663 17.598 69.0315 17.8743C68.9994 18.1495 68.9089 18.3927 68.76 18.604C68.6138 18.8142 68.4368 18.9968 68.2292 19.1518L68.2604 19.2311C68.5151 19.1492 68.7993 19.1381 69.1129 19.1978C69.4264 19.2576 69.7261 19.4022 70.0118 19.6317C70.2975 19.8611 70.5247 20.19 70.6932 20.6182C70.8535 21.0253 70.9051 21.4279 70.848 21.8259C70.7909 22.2239 70.6003 22.5966 70.2761 22.944C69.9518 23.2915 69.4698 23.5911 68.8301 23.8429L65.8958 24.9979ZM66.5358 23.7385L68.4867 22.9706C69.1291 22.7177 69.5362 22.414 69.708 22.0594C69.8814 21.7011 69.8979 21.3435 69.7574 20.9866C69.6492 20.7117 69.4793 20.4855 69.2476 20.308C69.0149 20.1279 68.7414 20.0188 68.4272 19.9806C68.112 19.9398 67.7772 19.9892 67.423 20.1286L65.4245 20.9153L66.5358 23.7385ZM65.0874 20.0588L66.9114 19.3408C67.2075 19.2243 67.4516 19.061 67.6437 18.851C67.8385 18.64 67.9643 18.4012 68.0211 18.1346C68.0806 17.8669 68.0542 17.5903 67.9418 17.3048C67.8014 16.948 67.558 16.6942 67.2117 16.5435C66.8643 16.3902 66.421 16.4197 65.8817 16.632L64.026 17.3624L65.0874 20.0588Z" fill="#9BA1A0"/>
<path d="M77.9704 20.818L75.9742 12.3221L77.003 12.0804L78.7848 19.6637L82.7341 18.7358L82.9485 19.6484L77.9704 20.818Z" fill="#9BA1A0"/>
<path d="M89.5355 18.5746L88.7812 9.87998L94.0286 9.42475L94.1096 10.3587L89.9151 10.7226L90.17 13.6605L94.0928 13.3201L94.1738 14.2541L90.251 14.5945L90.5074 17.5493L94.7698 17.1795L94.8508 18.1135L89.5355 18.5746Z" fill="#9BA1A0"/>
<path d="M111.109 18.7006L112.563 10.0952L117.722 10.9666L117.566 11.891L113.449 11.1956L112.957 14.1033L116.689 14.7334L116.533 15.6578L112.801 15.0277L112.151 18.8766L111.109 18.7006Z" fill="#9BA1A0"/>
<path d="M131.98 19.54C131.683 20.4111 131.268 21.1102 130.737 21.6374C130.206 22.1646 129.608 22.5067 128.942 22.6637C128.276 22.8207 127.591 22.779 126.886 22.5386C126.182 22.2982 125.614 21.9124 125.183 21.3811C124.752 20.8497 124.487 20.2131 124.389 19.4713C124.291 18.7294 124.391 17.9229 124.688 17.0518C124.985 16.1806 125.4 15.4815 125.931 14.9543C126.462 14.4271 127.06 14.085 127.726 13.928C128.392 13.771 129.077 13.8127 129.782 14.0531C130.486 14.2935 131.054 14.6793 131.485 15.2107C131.916 15.742 132.181 16.3786 132.279 17.1204C132.377 17.8623 132.277 18.6688 131.98 19.54ZM131.012 19.2097C131.256 18.4945 131.342 17.85 131.271 17.2764C131.202 16.7036 131.008 16.2216 130.688 15.8303C130.371 15.4399 129.963 15.1594 129.462 14.9888C128.962 14.8181 128.466 14.7899 127.974 14.9041C127.484 15.0192 127.036 15.282 126.629 15.6923C126.224 16.1036 125.9 16.6669 125.656 17.3821C125.412 18.0972 125.324 18.7412 125.393 19.314C125.464 19.8877 125.659 20.3697 125.976 20.76C126.295 21.1513 126.705 21.4323 127.205 21.6029C127.706 21.7736 128.2 21.8014 128.69 21.6862C129.182 21.572 129.63 21.3093 130.035 20.898C130.442 20.4876 130.768 19.9249 131.012 19.2097Z" fill="#9BA1A0"/>
<path d="M137.343 26.6521L141.453 18.9533L144.054 20.3422C144.656 20.6633 145.095 21.0296 145.371 21.4411C145.649 21.8502 145.785 22.2821 145.781 22.737C145.776 23.1919 145.653 23.6461 145.41 24.0998C145.168 24.5534 144.861 24.9061 144.488 25.1579C144.115 25.4098 143.684 25.5336 143.193 25.5294C142.704 25.5226 142.161 25.3601 141.565 25.0416L139.46 23.9177L139.909 23.0757L141.984 24.1835C142.395 24.4029 142.758 24.5194 143.073 24.5329C143.39 24.5478 143.664 24.475 143.895 24.3147C144.129 24.1532 144.329 23.9183 144.493 23.6101C144.658 23.3018 144.744 23.0016 144.752 22.7095C144.76 22.4174 144.67 22.1411 144.484 21.8807C144.299 21.6177 143.999 21.3752 143.583 21.1531L141.944 20.2781L138.275 27.1498L137.343 26.6521ZM142.813 25.1284L142.861 29.5983L141.779 29.0203L141.761 24.5664L142.813 25.1284Z" fill="#9BA1A0"/>
<path d="M156.534 39.5356L160.875 31.5973L161.648 32.3428L158.027 38.7251L158.088 38.7842L164.36 34.9579L165.218 35.7862L161.621 42.1921L161.683 42.2513L167.93 38.4012L168.703 39.1467L160.927 43.7718L160.141 43.0145L163.583 36.6716L163.534 36.6243L157.32 40.293L156.534 39.5356Z" fill="#9BA1A0"/>
<path d="M174.738 54.0161C173.989 54.5501 173.244 54.8762 172.505 54.9944C171.766 55.1126 171.081 55.0412 170.448 54.78C169.816 54.5189 169.284 54.0853 168.852 53.479C168.42 52.8727 168.184 52.2281 168.144 51.5451C168.104 50.862 168.261 50.1907 168.614 49.531C168.968 48.8713 169.519 48.2745 170.269 47.7405C171.019 47.2066 171.763 46.8805 172.502 46.7623C173.241 46.6441 173.926 46.7155 174.559 46.9766C175.191 47.2377 175.723 47.6714 176.155 48.2777C176.587 48.884 176.823 49.5286 176.863 50.2116C176.903 50.8946 176.746 51.566 176.393 52.2257C176.04 52.8853 175.488 53.4822 174.738 54.0161ZM174.145 53.1831C174.761 52.7447 175.207 52.2717 175.483 51.7642C175.762 51.259 175.885 50.7542 175.854 50.2499C175.824 49.7478 175.656 49.2816 175.35 48.8512C175.043 48.4208 174.657 48.1084 174.19 47.9139C173.726 47.7217 173.208 47.6734 172.638 47.7691C172.07 47.867 171.478 48.1352 170.862 48.5736C170.247 49.012 169.8 49.4838 169.521 49.989C169.244 50.4965 169.121 51.0013 169.15 51.5033C169.182 52.0077 169.351 52.4751 169.657 52.9055C169.964 53.3359 170.349 53.6472 170.814 53.8393C171.281 54.0338 171.798 54.0821 172.366 53.9841C172.937 53.8885 173.529 53.6215 174.145 53.1831Z" fill="#9BA1A0"/>
<path d="M174.943 62.9214L182.774 59.0678L184.076 61.7136C184.377 62.3254 184.52 62.879 184.504 63.3744C184.49 63.8685 184.349 64.299 184.08 64.6657C183.811 65.0325 183.446 65.3294 182.984 65.5564C182.523 65.7835 182.068 65.8905 181.618 65.8775C181.168 65.8645 180.745 65.7132 180.35 65.4235C179.956 65.1326 179.61 64.6839 179.312 64.0772L178.258 61.9361L179.115 61.5146L180.153 63.6251C180.359 64.0432 180.586 64.3495 180.833 64.5442C181.082 64.7414 181.347 64.8422 181.628 64.8465C181.913 64.8521 182.212 64.7778 182.525 64.6235C182.839 64.4692 183.084 64.2757 183.261 64.0431C183.438 63.8104 183.526 63.534 183.527 63.2138C183.53 62.8924 183.428 62.5201 183.22 62.097L182.399 60.43L175.41 63.8696L174.943 62.9214ZM180.275 64.8761L177.706 68.5342L177.164 67.4331L179.748 63.8055L180.275 64.8761Z" fill="#9BA1A0"/>
<path d="M180.114 74.5983L188.433 71.9582L188.752 72.9655L184.626 74.2752L184.657 74.3727L189.969 76.7997L190.387 78.1157L185.525 75.8138L182.069 80.7559L181.682 79.5374L184.631 75.4182L183.131 74.7497L180.434 75.6056L180.114 74.5983Z" fill="#9BA1A0"/>
<path d="M181.813 118.369L182.145 117.312L189.509 122.988L189.182 124.028L179.895 124.466L180.227 123.41L188.018 123.126L188.039 123.061L181.813 118.369ZM184.942 119.782L183.602 124.042L182.708 123.761L184.048 119.501L184.942 119.782Z" fill="#9BA1A0"/>
<path d="M184.902 135.214L177.175 134.225L177.129 134.317L182.526 139.934L182.028 140.923L175.673 134.137L176.164 133.163L185.4 134.224L184.902 135.214Z" fill="#9BA1A0"/>
<path d="M170.383 143.286L171.034 142.39L176.214 150.109L175.574 150.992L166.628 148.459L167.279 147.563L174.757 149.767L174.797 149.712L170.383 143.286ZM172.902 145.62L170.278 149.234L169.52 148.683L172.143 145.069L172.902 145.62Z" fill="#9BA1A0"/>
<path d="M167.591 160.56L161.268 154.545L161.996 153.779L168.319 159.795L167.591 160.56Z" fill="#9BA1A0"/>
<path d="M155.685 159.936L161.234 166.671L160.418 167.343L155.465 161.331L152.334 163.911L151.738 163.187L155.685 159.936Z" fill="#9BA1A0"/>
<path d="M146.016 167.26L146.966 166.691L148.697 175.826L147.761 176.386L140.53 170.541L141.481 169.973L147.491 174.938L147.549 174.903L146.016 167.26ZM147.415 170.395L143.582 172.688L143.101 171.884L146.933 169.591L147.415 170.395Z" fill="#9BA1A0"/>
<path d="M134.229 173.641L137.494 181.735L134.664 182.876C134.1 183.104 133.596 183.194 133.151 183.146C132.707 183.102 132.33 182.952 132.019 182.698C131.709 182.446 131.474 182.122 131.315 181.727C131.175 181.379 131.121 181.067 131.153 180.791C131.183 180.515 131.272 180.271 131.419 180.059C131.563 179.847 131.739 179.663 131.945 179.507L131.913 179.428C131.659 179.512 131.375 179.525 131.061 179.468C130.747 179.411 130.446 179.269 130.158 179.042C129.871 178.815 129.641 178.488 129.469 178.061C129.305 177.655 129.25 177.253 129.304 176.855C129.358 176.456 129.545 176.082 129.866 175.732C130.188 175.381 130.667 175.078 131.305 174.821L134.229 173.641ZM133.6 174.906L131.656 175.69C131.015 175.948 130.611 176.255 130.442 176.611C130.271 176.971 130.258 177.329 130.401 177.685C130.512 177.959 130.684 178.183 130.917 178.359C131.151 178.537 131.425 178.644 131.74 178.679C132.056 178.718 132.39 178.665 132.743 178.523L134.735 177.72L133.6 174.906ZM135.079 178.573L133.261 179.307C132.966 179.426 132.723 179.591 132.533 179.802C132.34 180.015 132.216 180.255 132.161 180.522C132.104 180.79 132.133 181.067 132.248 181.351C132.391 181.707 132.637 181.959 132.984 182.106C133.333 182.257 133.776 182.224 134.313 182.007L136.163 181.261L135.079 178.573Z" fill="#9BA1A0"/>
<path d="M122.19 177.922L124.257 186.401L123.23 186.651L121.385 179.083L117.444 180.044L117.222 179.133L122.19 177.922Z" fill="#9BA1A0"/>
<path d="M110.644 180.262L111.471 188.95L106.228 189.449L106.139 188.515L110.33 188.117L110.051 185.181L106.131 185.554L106.042 184.621L109.962 184.248L109.681 181.295L105.422 181.701L105.333 180.767L110.644 180.262Z" fill="#9BA1A0"/>
<path d="M89.0701 180.316L87.6887 188.933L82.5217 188.105L82.6701 187.179L86.7936 187.84L87.2604 184.928L83.524 184.33L83.6724 183.404L87.4088 184.003L88.0266 180.149L89.0701 180.316Z" fill="#9BA1A0"/>
<path d="M68.1933 179.651C68.4833 178.777 68.8916 178.075 69.4183 177.543C69.945 177.011 70.5406 176.664 71.2052 176.502C71.8698 176.339 72.5553 176.375 73.2617 176.61C73.9682 176.844 74.5391 177.225 74.9746 177.753C75.4101 178.281 75.6799 178.915 75.7842 179.656C75.8884 180.397 75.7955 181.204 75.5056 182.078C75.2156 182.952 74.8073 183.654 74.2806 184.186C73.7539 184.717 73.1583 185.065 72.4937 185.227C71.8291 185.39 71.1436 185.354 70.4372 185.119C69.7307 184.885 69.1598 184.504 68.7243 183.976C68.2888 183.448 68.019 182.814 67.9147 182.073C67.8105 181.332 67.9034 180.524 68.1933 179.651ZM69.164 179.973C68.9259 180.69 68.845 181.335 68.9212 181.908C68.9946 182.481 69.1929 182.961 69.5159 183.35C69.8362 183.737 70.2471 184.014 70.7486 184.181C71.2501 184.347 71.7465 184.371 72.2378 184.253C72.7263 184.134 73.1725 183.867 73.5762 183.454C73.9773 183.039 74.2968 182.473 74.5349 181.756C74.773 181.039 74.8553 180.394 74.7818 179.822C74.7056 179.249 74.5074 178.768 74.187 178.381C73.864 177.992 73.4518 177.715 72.9503 177.548C72.4488 177.382 71.9538 177.358 71.4652 177.477C70.9739 177.595 70.5278 177.862 70.1267 178.277C69.723 178.69 69.4021 179.256 69.164 179.973Z" fill="#9BA1A0"/>
<path d="M62.771 172.584L58.7252 180.317L56.1124 178.95C55.5082 178.633 55.0663 178.271 54.7867 177.862C54.5057 177.455 54.3656 177.024 54.3663 176.569C54.3671 176.114 54.4866 175.659 54.725 175.203C54.9634 174.748 55.2679 174.392 55.6386 174.138C56.0092 173.883 56.4398 173.755 56.9303 173.755C57.4194 173.758 57.9636 173.916 58.5627 174.229L60.6771 175.336L60.2346 176.181L58.1504 175.091C57.7375 174.875 57.3737 174.762 57.0587 174.751C56.7413 174.739 56.468 174.814 56.2388 174.976C56.0058 175.139 55.8083 175.376 55.6463 175.685C55.4843 175.995 55.4006 176.296 55.3953 176.588C55.3899 176.88 55.4814 177.156 55.6698 177.415C55.8569 177.676 56.1593 177.916 56.5772 178.135L58.2234 178.996L61.8346 172.094L62.771 172.584ZM57.3137 174.153L57.2282 169.684L58.3156 170.253L58.3709 174.706L57.3137 174.153Z" fill="#9BA1A0"/>
<path d="M43.4726 159.861L39.1982 167.835L38.4191 167.096L41.9872 160.684L41.9254 160.625L35.6859 164.504L34.8202 163.683L38.3636 157.247L38.3018 157.188L32.087 161.09L31.3078 160.351L39.0451 155.662L39.8366 156.412L36.4482 162.784L36.4977 162.831L42.6811 159.11L43.4726 159.861Z" fill="#9BA1A0"/>
<path d="M25.1484 145.533C25.8937 144.993 26.6352 144.66 27.3732 144.536C28.1111 144.412 28.7973 144.477 29.4319 144.733C30.0664 144.989 30.6021 145.418 31.039 146.021C31.4758 146.624 31.7171 147.266 31.7628 147.949C31.8085 148.632 31.6575 149.304 31.3097 149.967C30.962 150.629 30.4154 151.231 29.6702 151.771C28.9249 152.311 28.1834 152.643 27.4454 152.768C26.7075 152.892 26.0213 152.826 25.3867 152.571C24.7522 152.315 24.2165 151.886 23.7796 151.283C23.3428 150.68 23.1015 150.038 23.0558 149.355C23.0101 148.672 23.1611 148 23.5089 147.337C23.8566 146.675 24.4031 146.073 25.1484 145.533ZM25.7486 146.361C25.1368 146.804 24.6946 147.281 24.4221 147.791C24.1479 148.299 24.0285 148.804 24.0641 149.308C24.098 149.81 24.27 150.275 24.5801 150.703C24.8902 151.131 25.2793 151.44 25.7472 151.63C26.2136 151.819 26.7314 151.863 27.3007 151.762C27.8684 151.66 28.4581 151.386 29.07 150.943C29.6818 150.499 30.1248 150.024 30.399 149.516C30.6716 149.007 30.7909 148.501 30.757 147.999C30.7215 147.495 30.5486 147.029 30.2385 146.601C29.9284 146.173 29.5402 145.865 29.0738 145.677C28.6059 145.486 28.088 145.442 27.5204 145.545C26.9511 145.646 26.3605 145.917 25.7486 146.361Z" fill="#9BA1A0"/>
<path d="M24.8689 136.63L17.071 140.549L15.7469 137.914C15.4407 137.304 15.2935 136.752 15.3052 136.257C15.3143 135.762 15.4519 135.331 15.718 134.962C15.984 134.593 16.3468 134.293 16.8062 134.062C17.2657 133.831 17.7203 133.72 18.1701 133.729C18.6198 133.739 19.0438 133.886 19.4421 134.173C19.8378 134.46 20.1875 134.906 20.4911 135.51L21.5626 137.643L20.7097 138.071L19.6535 135.969C19.4443 135.553 19.215 135.249 18.9656 135.056C18.7149 134.861 18.4491 134.762 18.1683 134.76C17.8838 134.757 17.5853 134.834 17.2731 134.991C16.9609 135.148 16.7174 135.343 16.5425 135.578C16.3677 135.812 16.2812 136.089 16.2831 136.409C16.2825 136.73 16.3881 137.102 16.5998 137.523L17.4341 139.183L24.3944 135.685L24.8689 136.63ZM19.5213 134.72L22.0599 131.04L22.611 132.137L20.0571 135.786L19.5213 134.72Z" fill="#9BA1A0"/>
<path d="M19.6007 124.996L11.3047 127.706L10.9766 126.701L15.0922 125.357L15.0604 125.26L9.72763 122.877L9.29897 121.565L14.1797 123.826L17.595 118.855L17.9919 120.071L15.0775 124.214L16.5828 124.87L19.2726 123.992L19.6007 124.996Z" fill="#9BA1A0"/>
</svg>
