<?xml version="1.0" encoding="UTF-8"?>
<svg width="276.009766px" height="32.5703125px" viewBox="0 0 276.009766 32.5703125" version="1.1" xmlns="http://www.w3.org/2000/svg" xmlns:xlink="http://www.w3.org/1999/xlink">
    <title>653182418afc36d534684b62_logo</title>
    <g id="页面-1" stroke="none" stroke-width="1" fill="none" fill-rule="evenodd">
        <g id="653182418afc36d534684b62_logo" fill-rule="nonzero">
            <path d="M8.22851562,3.82421875 L20.4960938,22.3867188 L20.4960938,3.65234375 C20.4960938,2.43489583 20.757487,1.5218099 21.2802734,0.913085938 C21.8030599,0.304361979 22.5084635,0 23.3964844,0 C24.313151,0 25.0364583,0.304361979 25.5664062,0.913085938 C26.0963542,1.5218099 26.3613281,2.43489583 26.3613281,3.65234375 L26.3613281,28.4238281 C26.3613281,31.188151 25.2154948,32.5703125 22.9238281,32.5703125 C22.3509115,32.5703125 21.8352865,32.4879557 21.3769531,32.3232422 C20.9186198,32.1585286 20.4889323,31.8971354 20.0878906,31.5390625 C19.686849,31.1809896 19.3144531,30.7620443 18.9707031,30.2822266 C18.6269531,29.8024089 18.2832031,29.311849 17.9394531,28.8105469 L5.97265625,10.4628906 L5.97265625,28.9179688 C5.97265625,30.1210938 5.69335938,31.030599 5.13476562,31.6464844 C4.57617188,32.2623698 3.86002604,32.5703125 2.98632812,32.5703125 C2.08398438,32.5703125 1.36067708,32.2587891 0.81640625,31.6357422 C0.272135417,31.0126953 0,30.1067708 0,28.9179688 L0,4.61914062 C0,3.58789062 0.114583333,2.77864583 0.34375,2.19140625 C0.615885417,1.546875 1.06705729,1.02050781 1.69726563,0.612304688 C2.32747396,0.204101562 3.0078125,0 3.73828125,0 C4.31119792,0 4.80175781,0.0930989583 5.20996094,0.279296875 C5.61816406,0.465494792 5.97623698,0.716145833 6.28417969,1.03125 C6.5921224,1.34635417 6.90722656,1.75455729 7.22949219,2.25585938 C7.55175781,2.75716146 7.88476562,3.27994792 8.22851562,3.82421875 Z" id="路径" fill="#070707"></path>
            <path d="M46.7929688,32.0332031 L37.1679688,32.0332031 C35.7786458,32.0332031 34.7867839,31.7216797 34.1923828,31.0986328 C33.5979818,30.4755859 33.3007812,29.483724 33.3007812,28.1230469 L33.3007812,4.44726562 C33.3007812,3.05794271 33.6051432,2.05891927 34.2138672,1.45019531 C34.8225911,0.841471354 35.8072917,0.537109375 37.1679688,0.537109375 L47.3730469,0.537109375 C48.8769531,0.537109375 50.1803385,0.630208333 51.2832031,0.81640625 C52.3860677,1.00260417 53.374349,1.36067708 54.2480469,1.890625 C54.9928385,2.33463542 55.6516927,2.8968099 56.2246094,3.57714844 C56.797526,4.25748698 57.234375,5.0094401 57.5351562,5.83300781 C57.8359375,6.65657552 57.9863281,7.52669271 57.9863281,8.44335938 C57.9863281,11.594401 56.4108073,13.9003906 53.2597656,15.3613281 C57.3990885,16.6790365 59.46875,19.2428385 59.46875,23.0527344 C59.46875,24.8144531 59.0175781,26.4007161 58.1152344,27.8115234 C57.2128906,29.2223307 55.9954427,30.2643229 54.4628906,30.9375 C53.5032552,31.3385417 52.4003906,31.6214193 51.1542969,31.7861328 C49.9082031,31.9508464 48.4544271,32.0332031 46.7929688,32.0332031 Z M46.3203125,18.046875 L39.6816406,18.046875 L39.6816406,27.2421875 L46.5351562,27.2421875 C50.8463542,27.2421875 53.0019531,25.688151 53.0019531,22.5800781 C53.0019531,20.9902344 52.4433594,19.8372396 51.3261719,19.1210938 C50.2089844,18.4049479 48.5403646,18.046875 46.3203125,18.046875 Z M39.6816406,5.328125 L39.6816406,13.4707031 L45.5253906,13.4707031 C47.1152344,13.4707031 48.3434245,13.3203125 49.2099609,13.0195312 C50.0764974,12.71875 50.7389323,12.1458333 51.1972656,11.3007812 C51.5553385,10.6992188 51.734375,10.0260417 51.734375,9.28125 C51.734375,7.69140625 51.1686198,6.63509115 50.0371094,6.11230469 C48.905599,5.58951823 47.1796875,5.328125 44.859375,5.328125 L39.6816406,5.328125 Z" id="形状" fill="#070707"></path>
            <path d="M68.4707031,32.5703125 C67.5826823,32.5703125 66.8164062,32.2838542 66.171875,31.7109375 C65.5273438,31.1380208 65.2050781,30.3359375 65.2050781,29.3046875 C65.2050781,28.4309896 65.5130208,27.6790365 66.1289062,27.0488281 C66.7447917,26.4186198 67.5039062,26.1035156 68.40625,26.1035156 C69.3085938,26.1035156 70.0784505,26.4150391 70.7158203,27.0380859 C71.3531901,27.6611328 71.671875,28.4166667 71.671875,29.3046875 C71.671875,30.3216146 71.3531901,31.1201172 70.7158203,31.7001953 C70.0784505,32.2802734 69.3300781,32.5703125 68.4707031,32.5703125 Z" id="路径" fill="#070707"></path>
            <path d="M82.7148438,0.537109375 L91.0292969,0.537109375 C93.1920573,0.537109375 95.046875,0.737630208 96.59375,1.13867188 C98.140625,1.53971354 99.5442708,2.29166667 100.804688,3.39453125 C104.084635,6.20182292 105.724609,10.4700521 105.724609,16.1992188 C105.724609,18.0898438 105.559896,19.8157552 105.230469,21.3769531 C104.901042,22.938151 104.392578,24.3453776 103.705078,25.5986328 C103.017578,26.851888 102.136719,27.9726562 101.0625,28.9609375 C100.217448,29.7200521 99.2936198,30.328776 98.2910156,30.7871094 C97.2884115,31.2454427 96.210612,31.5677083 95.0576172,31.7539062 C93.9046224,31.9401042 92.6048177,32.0332031 91.1582031,32.0332031 L82.84375,32.0332031 C81.6835938,32.0332031 80.8098958,31.8577474 80.2226562,31.5068359 C79.6354167,31.1559245 79.2522786,30.6617839 79.0732422,30.0244141 C78.8942057,29.3870443 78.8046875,28.5598958 78.8046875,27.5429688 L78.8046875,4.44726562 C78.8046875,3.07226562 79.1126302,2.07682292 79.7285156,1.4609375 C80.344401,0.845052083 81.3398438,0.537109375 82.7148438,0.537109375 Z M85.1855469,5.5859375 L85.1855469,26.9628906 L90.0195312,26.9628906 C91.0794271,26.9628906 91.9101562,26.9342448 92.5117188,26.8769531 C93.1132812,26.8196615 93.7363281,26.6764323 94.3808594,26.4472656 C95.0253906,26.218099 95.5839844,25.8958333 96.0566406,25.4804688 C98.1907552,23.6757812 99.2578125,20.5677083 99.2578125,16.15625 C99.2578125,13.0481771 98.788737,10.7207031 97.8505859,9.17382812 C96.9124349,7.62695312 95.7558594,6.6422526 94.3808594,6.21972656 C93.0058594,5.79720052 91.344401,5.5859375 89.3964844,5.5859375 L85.1855469,5.5859375 Z" id="形状" fill="#9BA1A0"></path>
            <path d="M132.085938,5.45703125 L117.712891,5.45703125 L117.712891,13.1914062 L130.947266,13.1914062 C131.921224,13.1914062 132.648112,13.4098307 133.12793,13.8466797 C133.607747,14.2835286 133.847656,14.860026 133.847656,15.5761719 C133.847656,16.2923177 133.611328,16.8759766 133.138672,17.3271484 C132.666016,17.7783203 131.935547,18.0039062 130.947266,18.0039062 L117.712891,18.0039062 L117.712891,26.9628906 L132.580078,26.9628906 C133.582682,26.9628906 134.338216,27.195638 134.84668,27.6611328 C135.355143,28.1266276 135.609375,28.7460938 135.609375,29.5195312 C135.609375,30.2643229 135.355143,30.8694661 134.84668,31.3349609 C134.338216,31.8004557 133.582682,32.0332031 132.580078,32.0332031 L115.242188,32.0332031 C113.852865,32.0332031 112.853841,31.7252604 112.245117,31.109375 C111.636393,30.4934896 111.332031,29.4980469 111.332031,28.1230469 L111.332031,4.44726562 C111.332031,3.53059896 111.468099,2.78222656 111.740234,2.20214844 C112.01237,1.62207031 112.438477,1.19954427 113.018555,0.934570312 C113.598633,0.669596354 114.339844,0.537109375 115.242188,0.537109375 L132.085938,0.537109375 C133.102865,0.537109375 133.858398,0.762695312 134.352539,1.21386719 C134.84668,1.66503906 135.09375,2.25585938 135.09375,2.98632812 C135.09375,3.73111979 134.84668,4.32910156 134.352539,4.78027344 C133.858398,5.23144531 133.102865,5.45703125 132.085938,5.45703125 Z" id="路径" fill="#9BA1A0"></path>
            <path d="M164.613281,22.5800781 C164.613281,24.485026 164.122721,26.1966146 163.141602,27.7148438 C162.160482,29.2330729 160.724609,30.421875 158.833984,31.28125 C156.943359,32.140625 154.701823,32.5703125 152.109375,32.5703125 C149.001302,32.5703125 146.4375,31.9830729 144.417969,30.8085938 C142.985677,29.9635417 141.82194,28.835612 140.926758,27.4248047 C140.031576,26.0139974 139.583984,24.6425781 139.583984,23.3105469 C139.583984,22.5371094 139.852539,21.8746745 140.389648,21.3232422 C140.926758,20.7718099 141.610677,20.4960938 142.441406,20.4960938 C143.114583,20.4960938 143.683919,20.7109375 144.149414,21.140625 C144.614909,21.5703125 145.01237,22.2076823 145.341797,23.0527344 C145.742839,24.0553385 146.176107,24.8932292 146.641602,25.5664062 C147.107096,26.2395833 147.76237,26.7945964 148.607422,27.2314453 C149.452474,27.6682943 150.5625,27.8867188 151.9375,27.8867188 C153.828125,27.8867188 155.364258,27.4462891 156.545898,26.5654297 C157.727539,25.6845703 158.318359,24.5852865 158.318359,23.2675781 C158.318359,22.2220052 157.999674,21.3733724 157.362305,20.7216797 C156.724935,20.069987 155.901367,19.5722656 154.891602,19.2285156 C153.881836,18.8847656 152.531901,18.5195312 150.841797,18.1328125 C148.578776,17.6028646 146.68457,16.9833984 145.15918,16.2744141 C143.633789,15.5654297 142.423503,14.5986328 141.52832,13.3740234 C140.633138,12.1494141 140.185547,10.6276042 140.185547,8.80859375 C140.185547,7.07552083 140.658203,5.53580729 141.603516,4.18945312 C142.548828,2.84309896 143.916667,1.80826823 145.707031,1.08496094 C147.497396,0.361653646 149.602865,0 152.023438,0 C153.957031,0 155.629232,0.239908854 157.040039,0.719726562 C158.450846,1.19954427 159.621745,1.83691406 160.552734,2.63183594 C161.483724,3.42675781 162.164062,4.26106771 162.59375,5.13476562 C163.023438,6.00846354 163.238281,6.86067708 163.238281,7.69140625 C163.238281,8.45052083 162.969727,9.1344401 162.432617,9.74316406 C161.895508,10.351888 161.225911,10.65625 160.423828,10.65625 C159.693359,10.65625 159.138346,10.4736328 158.758789,10.1083984 C158.379232,9.74316406 157.967448,9.14518229 157.523438,8.31445312 C156.950521,7.12565104 156.263021,6.19824219 155.460938,5.53222656 C154.658854,4.86621094 153.369792,4.53320312 151.59375,4.53320312 C149.946615,4.53320312 148.618164,4.89485677 147.608398,5.61816406 C146.598633,6.34147135 146.09375,7.21158854 146.09375,8.22851562 C146.09375,8.85872396 146.265625,9.40299479 146.609375,9.86132812 C146.953125,10.3196615 147.425781,10.7135417 148.027344,11.0429688 C148.628906,11.3723958 149.23763,11.6302083 149.853516,11.8164062 C150.469401,12.0026042 151.486328,12.2747396 152.904297,12.6328125 C154.680339,13.0481771 156.288086,13.5065104 157.727539,14.0078125 C159.166992,14.5091146 160.391602,15.1178385 161.401367,15.8339844 C162.411133,16.5501302 163.198893,17.4560547 163.764648,18.5517578 C164.330404,19.6474609 164.613281,20.9902344 164.613281,22.5800781 Z" id="路径" fill="#9BA1A0"></path>
            <path d="M170.285156,28.6816406 L170.285156,3.8671875 C170.285156,2.578125 170.578776,1.61132812 171.166016,0.966796875 C171.753255,0.322265625 172.51237,0 173.443359,0 C174.402995,0 175.180013,0.318684896 175.774414,0.956054688 C176.368815,1.59342448 176.666016,2.56380208 176.666016,3.8671875 L176.666016,28.6816406 C176.666016,29.985026 176.368815,30.9589844 175.774414,31.6035156 C175.180013,32.2480469 174.402995,32.5703125 173.443359,32.5703125 C172.526693,32.5703125 171.771159,32.2444661 171.176758,31.5927734 C170.582357,30.9410807 170.285156,29.9707031 170.285156,28.6816406 Z" id="路径" fill="#9BA1A0"></path>
            <path d="M212.566406,19.2285156 L212.566406,25.265625 C212.566406,26.0677083 212.48763,26.7086589 212.330078,27.1884766 C212.172526,27.6682943 211.882487,28.1015625 211.459961,28.4882812 C211.037435,28.875 210.496745,29.2473958 209.837891,29.6054688 C207.932943,30.6367188 206.099609,31.3886719 204.337891,31.8613281 C202.576172,32.3339844 200.656901,32.5703125 198.580078,32.5703125 C196.159505,32.5703125 193.953776,32.1979167 191.962891,31.453125 C189.972005,30.7083333 188.27474,29.6269531 186.871094,28.2089844 C185.467448,26.7910156 184.389648,25.0722656 183.637695,23.0527344 C182.885742,21.0332031 182.509766,18.7773438 182.509766,16.2851562 C182.509766,13.8359375 182.875,11.594401 183.605469,9.56054688 C184.335938,7.52669271 185.410156,5.80078125 186.828125,4.3828125 C188.246094,2.96484375 189.972005,1.87988281 192.005859,1.12792969 C194.039714,0.375976562 196.345703,0 198.923828,0 C201.04362,0 202.919922,0.282877604 204.552734,0.848632812 C206.185547,1.41438802 207.510417,2.12695312 208.527344,2.98632812 C209.544271,3.84570312 210.310547,4.75520833 210.826172,5.71484375 C211.341797,6.67447917 211.599609,7.52669271 211.599609,8.27148438 C211.599609,9.07356771 211.302409,9.75748698 210.708008,10.3232422 C210.113607,10.8889974 209.401042,11.171875 208.570312,11.171875 C208.111979,11.171875 207.671549,11.0644531 207.249023,10.8496094 C206.826497,10.6347656 206.472005,10.3339844 206.185547,9.94726562 C205.397786,8.71549479 204.731771,7.78450521 204.1875,7.15429688 C203.643229,6.52408854 202.90918,5.99414062 201.985352,5.56445312 C201.061523,5.13476562 199.883464,4.91992188 198.451172,4.91992188 C196.975911,4.91992188 195.658203,5.17415365 194.498047,5.68261719 C193.337891,6.19108073 192.346029,6.92871094 191.522461,7.89550781 C190.698893,8.86230469 190.068685,10.047526 189.631836,11.4511719 C189.194987,12.8548177 188.976562,14.4088542 188.976562,16.1132812 C188.976562,19.8085938 189.825195,22.6516927 191.522461,24.6425781 C193.219727,26.6334635 195.586589,27.6289062 198.623047,27.6289062 C200.098307,27.6289062 201.484049,27.4355469 202.780273,27.0488281 C204.076497,26.6621094 205.390625,26.1106771 206.722656,25.3945312 L206.722656,20.28125 L201.78125,20.28125 C200.592448,20.28125 199.693685,20.1022135 199.084961,19.7441406 C198.476237,19.3860677 198.171875,18.7773438 198.171875,17.9179688 C198.171875,17.2161458 198.426107,16.6360677 198.93457,16.1777344 C199.443034,15.719401 200.134115,15.4902344 201.007812,15.4902344 L208.248047,15.4902344 C209.136068,15.4902344 209.888021,15.5690104 210.503906,15.7265625 C211.119792,15.8841146 211.617513,16.235026 211.99707,16.7792969 C212.376628,17.3235677 212.566406,18.139974 212.566406,19.2285156 Z" id="路径" fill="#9BA1A0"></path>
            <path d="M226.960938,3.82421875 L239.228516,22.3867188 L239.228516,3.65234375 C239.228516,2.43489583 239.489909,1.5218099 240.012695,0.913085938 C240.535482,0.304361979 241.240885,0 242.128906,0 C243.045573,0 243.76888,0.304361979 244.298828,0.913085938 C244.828776,1.5218099 245.09375,2.43489583 245.09375,3.65234375 L245.09375,28.4238281 C245.09375,31.188151 243.947917,32.5703125 241.65625,32.5703125 C241.083333,32.5703125 240.567708,32.4879557 240.109375,32.3232422 C239.651042,32.1585286 239.221354,31.8971354 238.820312,31.5390625 C238.419271,31.1809896 238.046875,30.7620443 237.703125,30.2822266 C237.359375,29.8024089 237.015625,29.311849 236.671875,28.8105469 L224.705078,10.4628906 L224.705078,28.9179688 C224.705078,30.1210938 224.425781,31.030599 223.867188,31.6464844 C223.308594,32.2623698 222.592448,32.5703125 221.71875,32.5703125 C220.816406,32.5703125 220.093099,32.2587891 219.548828,31.6357422 C219.004557,31.0126953 218.732422,30.1067708 218.732422,28.9179688 L218.732422,4.61914062 C218.732422,3.58789062 218.847005,2.77864583 219.076172,2.19140625 C219.348307,1.546875 219.799479,1.02050781 220.429688,0.612304688 C221.059896,0.204101562 221.740234,0 222.470703,0 C223.04362,0 223.53418,0.0930989583 223.942383,0.279296875 C224.350586,0.465494792 224.708659,0.716145833 225.016602,1.03125 C225.324544,1.34635417 225.639648,1.75455729 225.961914,2.25585938 C226.28418,2.75716146 226.617188,3.27994792 226.960938,3.82421875 Z" id="路径" fill="#9BA1A0"></path>
            <path d="M276.009766,22.5800781 C276.009766,24.485026 275.519206,26.1966146 274.538086,27.7148438 C273.556966,29.2330729 272.121094,30.421875 270.230469,31.28125 C268.339844,32.140625 266.098307,32.5703125 263.505859,32.5703125 C260.397786,32.5703125 257.833984,31.9830729 255.814453,30.8085938 C254.382161,29.9635417 253.218424,28.835612 252.323242,27.4248047 C251.42806,26.0139974 250.980469,24.6425781 250.980469,23.3105469 C250.980469,22.5371094 251.249023,21.8746745 251.786133,21.3232422 C252.323242,20.7718099 253.007161,20.4960938 253.837891,20.4960938 C254.511068,20.4960938 255.080404,20.7109375 255.545898,21.140625 C256.011393,21.5703125 256.408854,22.2076823 256.738281,23.0527344 C257.139323,24.0553385 257.572591,24.8932292 258.038086,25.5664062 C258.503581,26.2395833 259.158854,26.7945964 260.003906,27.2314453 C260.848958,27.6682943 261.958984,27.8867188 263.333984,27.8867188 C265.224609,27.8867188 266.760742,27.4462891 267.942383,26.5654297 C269.124023,25.6845703 269.714844,24.5852865 269.714844,23.2675781 C269.714844,22.2220052 269.396159,21.3733724 268.758789,20.7216797 C268.121419,20.069987 267.297852,19.5722656 266.288086,19.2285156 C265.27832,18.8847656 263.928385,18.5195312 262.238281,18.1328125 C259.97526,17.6028646 258.081055,16.9833984 256.555664,16.2744141 C255.030273,15.5654297 253.819987,14.5986328 252.924805,13.3740234 C252.029622,12.1494141 251.582031,10.6276042 251.582031,8.80859375 C251.582031,7.07552083 252.054688,5.53580729 253,4.18945312 C253.945312,2.84309896 255.313151,1.80826823 257.103516,1.08496094 C258.89388,0.361653646 260.999349,0 263.419922,0 C265.353516,0 267.025716,0.239908854 268.436523,0.719726562 C269.847331,1.19954427 271.018229,1.83691406 271.949219,2.63183594 C272.880208,3.42675781 273.560547,4.26106771 273.990234,5.13476562 C274.419922,6.00846354 274.634766,6.86067708 274.634766,7.69140625 C274.634766,8.45052083 274.366211,9.1344401 273.829102,9.74316406 C273.291992,10.351888 272.622396,10.65625 271.820312,10.65625 C271.089844,10.65625 270.534831,10.4736328 270.155273,10.1083984 C269.775716,9.74316406 269.363932,9.14518229 268.919922,8.31445312 C268.347005,7.12565104 267.659505,6.19824219 266.857422,5.53222656 C266.055339,4.86621094 264.766276,4.53320312 262.990234,4.53320312 C261.343099,4.53320312 260.014648,4.89485677 259.004883,5.61816406 C257.995117,6.34147135 257.490234,7.21158854 257.490234,8.22851562 C257.490234,8.85872396 257.662109,9.40299479 258.005859,9.86132812 C258.349609,10.3196615 258.822266,10.7135417 259.423828,11.0429688 C260.025391,11.3723958 260.634115,11.6302083 261.25,11.8164062 C261.865885,12.0026042 262.882812,12.2747396 264.300781,12.6328125 C266.076823,13.0481771 267.68457,13.5065104 269.124023,14.0078125 C270.563477,14.5091146 271.788086,15.1178385 272.797852,15.8339844 C273.807617,16.5501302 274.595378,17.4560547 275.161133,18.5517578 C275.726888,19.6474609 276.009766,20.9902344 276.009766,22.5800781 Z" id="路径" fill="#9BA1A0"></path>
        </g>
    </g>
</svg>