<svg width="18" height="18" viewBox="0 0 18 18" fill="none" xmlns="http://www.w3.org/2000/svg">
<path d="M4.57031 9C4.57031 8.16146 4.77604 7.39583 5.1875 6.70312C5.59896 6.01042 6.14844 5.46094 6.83594 5.05469C7.52865 4.64323 8.29427 4.4375 9.13281 4.4375C9.86198 4.4375 10.5365 4.59635 11.1562 4.91406C11.776 5.22656 12.2891 5.65625 12.6953 6.20312C13.1016 6.75 13.349 7.36458 13.4375 8.04687H11.4063C11.3125 7.5625 11.0469 7.16667 10.6094 6.85938C10.1771 6.54687 9.6849 6.39062 9.13281 6.39062C8.65365 6.39062 8.21615 6.50781 7.82031 6.74219C7.42448 6.97656 7.10938 7.29167 6.875 7.6875C6.64063 8.07812 6.52344 8.51562 6.52344 9C6.52344 9.47917 6.64063 9.91667 6.875 10.3125C7.10938 10.7083 7.42448 11.0234 7.82031 11.2578C8.21615 11.4922 8.65365 11.6094 9.13281 11.6094C9.6849 11.6094 10.1563 11.4557 10.5469 11.1484C10.9375 10.8359 11.1823 10.4375 11.2812 9.95312H13.3125C13.224 10.6354 12.987 11.25 12.6016 11.7969C12.2161 12.3437 11.724 12.776 11.125 13.0937C10.526 13.4062 9.86198 13.5625 9.13281 13.5625C8.29427 13.5625 7.52865 13.3594 6.83594 12.9531C6.14844 12.5417 5.59896 11.9896 5.1875 11.2969C4.77604 10.6042 4.57031 9.83854 4.57031 9ZM9.0625 17.25C7.92708 17.25 6.85938 17.0365 5.85938 16.6094C4.86458 16.1823 3.98698 15.5911 3.22656 14.8359C2.47135 14.0755 1.8776 13.1979 1.44531 12.2031C1.01823 11.2083 0.807292 10.1406 0.8125 9C0.817708 7.85937 1.03385 6.79167 1.46094 5.79687C1.89323 4.80208 2.48698 3.92708 3.24219 3.17188C3.9974 2.41146 4.8724 1.81771 5.86719 1.39062C6.86198 0.963541 7.92708 0.75 9.0625 0.75C10.2031 0.75 11.2708 0.963541 12.2656 1.39062C13.2656 1.81771 14.1406 2.41146 14.8906 3.17188C15.6458 3.92708 16.237 4.80208 16.6641 5.79687C17.0911 6.79167 17.3073 7.85937 17.3125 9C17.3177 10.1406 17.1068 11.2083 16.6797 12.2031C16.2526 13.1979 15.6615 14.0755 14.9063 14.8359C14.151 15.5911 13.2734 16.1823 12.2734 16.6094C11.2734 17.0365 10.2031 17.25 9.0625 17.25ZM9.0625 15.1719C9.91667 15.1719 10.7188 15.013 11.4688 14.6953C12.2188 14.3776 12.875 13.9375 13.4375 13.375C14.0052 12.8073 14.4479 12.151 14.7656 11.4062C15.0833 10.6562 15.2396 9.85677 15.2344 9.00781C15.2344 8.15365 15.0729 7.35156 14.75 6.60156C14.4323 5.85156 13.9896 5.19531 13.4219 4.63281C12.8594 4.0651 12.2057 3.62239 11.4609 3.30469C10.7161 2.98698 9.91667 2.82812 9.0625 2.82812C8.21354 2.82812 7.41667 2.98698 6.67188 3.30469C5.92708 3.62239 5.27083 4.0651 4.70313 4.63281C4.14063 5.20052 3.69792 5.85937 3.375 6.60937C3.05208 7.35417 2.89063 8.15365 2.89063 9.00781C2.88542 9.85156 3.04167 10.6484 3.35938 11.3984C3.68229 12.1432 4.125 12.7995 4.6875 13.3672C5.25521 13.9297 5.91146 14.3724 6.65625 14.6953C7.40625 15.013 8.20833 15.1719 9.0625 15.1719Z" fill="#9BA1A0"/>
</svg>
