<svg width="200" height="200" viewBox="0 0 200 200" fill="none" xmlns="http://www.w3.org/2000/svg">
<path d="M15.0167 82.0282L14.7725 83.1089L6.96615 78.0596L7.20659 76.9955L16.4255 75.7933L16.1813 76.874L8.44062 77.7986L8.42559 77.8651L15.0167 82.0282ZM11.7816 80.8778L12.7659 76.5217L13.6804 76.7283L12.6961 81.0844L11.7816 80.8778Z" fill="#9BA1A0"/>
<path d="M18.5238 69.09L10.4079 65.8811L11.5297 63.0437C11.7532 62.4783 12.0353 62.0507 12.376 61.7608C12.7141 61.4698 13.0824 61.2992 13.481 61.2491C13.877 61.1979 14.2732 61.2507 14.6694 61.4074C15.0182 61.5453 15.2816 61.7212 15.4597 61.9352C15.6389 62.1466 15.7548 62.3787 15.8075 62.6318C15.8613 62.8821 15.8739 63.1361 15.8454 63.3936L15.9246 63.425C16.0387 63.1829 16.2246 62.9677 16.4823 62.7794C16.7401 62.5911 17.0503 62.4709 17.413 62.4188C17.7758 62.3667 18.1712 62.4253 18.5991 62.5945C19.006 62.7553 19.3353 62.9925 19.5872 63.3059C19.839 63.6193 19.9812 64.0131 20.0137 64.4872C20.0462 64.9614 19.936 65.5181 19.6832 66.1574L18.5238 69.09ZM18.0405 67.7625L18.8114 65.8127C19.0652 65.1707 19.1213 64.6659 18.9795 64.2983C18.8361 63.9269 18.586 63.6707 18.2294 63.5297C17.9546 63.4211 17.6733 63.3908 17.3855 63.4389C17.095 63.486 16.8285 63.6113 16.5861 63.8148C16.3411 64.0173 16.1486 64.2956 16.0087 64.6496L15.219 66.6469L18.0405 67.7625ZM14.363 66.3085L15.0837 64.4855C15.2007 64.1897 15.2481 63.8998 15.2259 63.6161C15.2047 63.3297 15.1161 63.0748 14.9601 62.8512C14.8051 62.6249 14.585 62.4554 14.2997 62.3426C13.943 62.2016 13.5914 62.2062 13.2449 62.3563C12.8957 62.5054 12.6146 62.8495 12.4015 63.3884L11.6683 65.243L14.363 66.3085Z" fill="#9BA1A0"/>
<path d="M23.6629 48.8449C24.4541 49.3154 25.0528 49.8648 25.4592 50.4932C25.8655 51.1216 26.0769 51.7778 26.0932 52.4618C26.1095 53.1457 25.9274 53.8076 25.547 54.4473C25.1665 55.0871 24.6719 55.5631 24.0631 55.8753C23.4544 56.1876 22.7769 56.3152 22.0308 56.2582C21.2846 56.2012 20.516 55.9374 19.7248 55.4669C18.9337 54.9965 18.335 54.447 17.9286 53.8187C17.5222 53.1903 17.3109 52.5341 17.2946 51.8501C17.2783 51.1661 17.4603 50.5042 17.8408 49.8645C18.2212 49.2248 18.7159 48.7488 19.3246 48.4365C19.9334 48.1243 20.6109 47.9967 21.357 48.0537C22.1032 48.1107 22.8718 48.3744 23.6629 48.8449ZM23.1402 49.7239C22.4907 49.3377 21.8779 49.1203 21.3018 49.0719C20.7272 49.0211 20.2155 49.1117 19.7667 49.3439C19.3193 49.5737 18.9606 49.9157 18.6905 50.3698C18.4204 50.824 18.2905 51.3037 18.3008 51.8089C18.3125 52.3117 18.4771 52.8046 18.7947 53.2876C19.1138 53.7682 19.5981 54.2017 20.2476 54.5879C20.8971 54.9742 21.5092 55.1927 22.0838 55.2436C22.6599 55.292 23.1716 55.2013 23.6189 54.9716C24.0677 54.7394 24.4272 54.3962 24.6972 53.942C24.9673 53.4878 25.0965 53.0094 25.0848 52.5066C25.0746 52.0014 24.9099 51.5085 24.5908 51.0279C24.2732 50.5449 23.7897 50.1102 23.1402 49.7239Z" fill="#9BA1A0"/>
<path d="M28.7418 35.0435L29.4244 34.2367L33.8357 37.9691C34.2911 38.3544 34.607 38.8059 34.7831 39.3233C34.959 39.8368 34.9857 40.3748 34.8633 40.9374C34.7387 41.4981 34.4553 42.0397 34.013 42.5624C33.5708 43.0851 33.0835 43.4543 32.5512 43.67C32.0167 43.8839 31.4808 43.9477 30.9434 43.8615C30.4057 43.7713 29.9092 43.5335 29.4537 43.1481L25.0425 39.4157L25.7251 38.609L30.0713 42.2863C30.3966 42.5615 30.7467 42.7349 31.1215 42.8065C31.4942 42.8762 31.8652 42.8403 32.2343 42.6986C32.6032 42.553 32.9445 42.2947 33.2583 41.9238C33.5721 41.553 33.7702 41.1736 33.8528 40.7858C33.9332 40.396 33.9073 40.0243 33.775 39.6705C33.6423 39.3126 33.4133 38.9961 33.088 38.7208L28.7418 35.0435Z" fill="#9BA1A0"/>
<path d="M35.558 29.35L34.9438 28.6416L39.8893 24.3538L40.5035 25.0622L38.43 26.8599L43.5329 32.7456L42.7344 33.4379L37.6315 27.5522L35.558 29.35Z" fill="#9BA1A0"/>
<path d="M54.7357 14.416L55.8738 13.8722L61.673 19.1302L61.7653 19.0861L61.3184 11.2709L62.4565 10.7271L66.2189 18.6018L65.3268 19.028L62.4683 13.0451L62.3914 13.0818L62.7891 20.2405L61.9278 20.652L56.6085 15.8448L56.5316 15.8816L59.3901 21.8644L58.498 22.2906L54.7357 14.416Z" fill="#9BA1A0"/>
<path d="M72.9868 16.1358L70.5749 7.74845L75.6369 6.29287L75.8959 7.19386L71.8497 8.35738L72.6646 11.1914L76.4488 10.1033L76.7079 11.0042L72.9237 12.0924L73.7434 14.9428L77.8551 13.7604L78.1142 14.6614L72.9868 16.1358Z" fill="#9BA1A0"/>
<path d="M120.86 14.5901L119.797 14.2778L125.332 6.8075L126.378 7.11497L126.993 16.3916L125.93 16.0793L125.498 8.29555L125.433 8.27633L120.86 14.5901ZM122.214 11.4345L126.498 12.6932L126.234 13.5927L121.949 12.334L122.214 11.4345Z" fill="#9BA1A0"/>
<path d="M133.55 18.911L137.267 11.015L140.028 12.3146C140.578 12.5735 140.987 12.8822 141.254 13.2406C141.523 13.5964 141.67 13.9748 141.695 14.3758C141.721 14.7743 141.643 15.1663 141.462 15.5518C141.302 15.8911 141.11 16.1428 140.885 16.307C140.662 16.4724 140.423 16.5734 140.167 16.6099C139.914 16.6477 139.66 16.6442 139.405 16.5994L139.368 16.6765C139.603 16.8056 139.806 17.0048 139.977 17.274C140.149 17.5431 140.249 17.8604 140.278 18.2257C140.307 18.591 140.224 18.9819 140.028 19.3983C139.841 19.7941 139.584 20.1077 139.255 20.3392C138.926 20.5706 138.524 20.6875 138.049 20.6899C137.574 20.6922 137.025 20.547 136.403 20.2541L133.55 18.911ZM134.905 18.5129L136.802 19.4059C137.427 19.7 137.927 19.7879 138.303 19.6697C138.683 19.5502 138.954 19.3169 139.118 18.9699C139.243 18.7026 139.292 18.4238 139.262 18.1335C139.233 17.8406 139.125 17.5667 138.937 17.3119C138.751 17.0545 138.485 16.8448 138.141 16.6826L136.198 15.7678L134.905 18.5129ZM136.59 14.935L138.363 15.77C138.651 15.9055 138.937 15.9712 139.222 15.967C139.509 15.964 139.769 15.8918 140.002 15.7503C140.238 15.61 140.421 15.4011 140.552 15.1235C140.715 14.7765 140.733 14.4253 140.605 14.0699C140.478 13.712 140.153 13.4096 139.628 13.1628L137.824 12.3133L136.59 14.935Z" fill="#9BA1A0"/>
<path d="M153.428 25.3242C152.908 26.0839 152.322 26.6466 151.669 27.0123C151.016 27.3779 150.348 27.5472 149.664 27.5201C148.981 27.493 148.332 27.2693 147.717 26.849C147.103 26.4287 146.659 25.9049 146.386 25.2776C146.113 24.6502 146.029 23.966 146.133 23.225C146.238 22.484 146.55 21.7336 147.069 20.9739C147.589 20.2142 148.175 19.6516 148.828 19.2859C149.481 18.9202 150.149 18.7509 150.833 18.778C151.517 18.8052 152.166 19.0289 152.78 19.4491C153.394 19.8694 153.838 20.3932 154.111 21.0206C154.384 21.6479 154.468 22.3321 154.364 23.0732C154.26 23.8142 153.948 24.5645 153.428 25.3242ZM152.584 24.7468C153.011 24.1231 153.266 23.5253 153.351 22.9534C153.439 22.3832 153.381 21.8668 153.177 21.4042C152.976 20.9431 152.658 20.5634 152.222 20.2651C151.786 19.9667 151.315 19.8066 150.81 19.7848C150.308 19.7646 149.805 19.8977 149.303 20.184C148.803 20.4719 148.34 20.9277 147.913 21.5514C147.487 22.1751 147.23 22.772 147.143 23.3423C147.058 23.9141 147.116 24.4306 147.317 24.8916C147.52 25.3542 147.84 25.7347 148.276 26.0331C148.712 26.3314 149.181 26.4907 149.684 26.5109C150.188 26.5327 150.691 26.3997 151.191 26.1118C151.693 25.8254 152.157 25.3704 152.584 24.7468Z" fill="#9BA1A0"/>
<path d="M166.879 31.2685L167.641 32.0009L163.637 36.1665C163.223 36.5966 162.753 36.8831 162.225 37.0261C161.701 37.1691 161.163 37.1616 160.609 37.0037C160.057 36.8438 159.535 36.5266 159.041 36.0521C158.548 35.5775 158.21 35.0678 158.029 34.5229C157.849 33.9759 157.819 33.437 157.94 32.9062C158.064 32.3753 158.332 31.8949 158.746 31.4648L162.751 27.2992L163.513 28.0316L159.567 32.1358C159.272 32.443 159.076 32.7814 158.981 33.1509C158.888 33.5184 158.9 33.8909 159.018 34.2683C159.14 34.6457 159.376 35.0027 159.726 35.3394C160.077 35.676 160.443 35.8979 160.824 36.0049C161.208 36.1099 161.581 36.1075 161.942 35.998C162.308 35.8883 162.638 35.6799 162.934 35.3727L166.879 31.2685Z" fill="#9BA1A0"/>
<path d="M172.129 38.4322L172.875 37.8642L176.84 43.0718L176.094 43.6398L174.432 41.4564L168.234 46.1756L167.594 45.3348L173.792 40.6156L172.129 38.4322Z" fill="#9BA1A0"/>
<path d="M185.816 58.5188L186.287 59.6891L180.671 65.143L180.709 65.2379L188.537 65.2878L189.008 66.4581L180.91 69.7133L180.542 68.796L186.694 66.3228L186.662 66.2437L179.492 66.1864L179.136 65.3008L184.271 60.2971L184.24 60.2181L178.087 62.6912L177.719 61.7739L185.816 58.5188Z" fill="#9BA1A0"/>
<path d="M182.942 76.624L191.465 74.7492L192.597 79.8933L191.681 80.0947L190.777 75.9827L187.897 76.6162L188.743 80.4618L187.827 80.6632L186.981 76.8176L184.084 77.4547L185.004 81.6333L184.088 81.8347L182.942 76.624Z" fill="#9BA1A0"/>
<path d="M183.868 117.674L184.122 116.595L191.883 121.714L191.633 122.776L182.403 123.895L182.657 122.817L190.406 121.962L190.422 121.896L183.868 117.674ZM187.093 118.853L186.069 123.2L185.157 122.985L186.18 118.638L187.093 118.853Z" fill="#9BA1A0"/>
<path d="M180.245 130.58L188.332 133.861L187.184 136.689C186.956 137.252 186.67 137.677 186.326 137.964C185.986 138.252 185.616 138.419 185.217 138.466C184.82 138.513 184.425 138.457 184.03 138.297C183.682 138.156 183.42 137.977 183.244 137.762C183.067 137.549 182.953 137.315 182.903 137.062C182.851 136.811 182.841 136.557 182.872 136.3L182.793 136.268C182.677 136.509 182.489 136.722 182.229 136.908C181.97 137.094 181.659 137.212 181.295 137.26C180.932 137.309 180.537 137.247 180.111 137.074C179.706 136.91 179.378 136.67 179.129 136.354C178.88 136.038 178.742 135.643 178.714 135.169C178.685 134.694 178.8 134.139 179.059 133.502L180.245 130.58ZM180.716 131.911L179.928 133.854C179.668 134.494 179.608 134.998 179.746 135.367C179.886 135.74 180.134 135.998 180.489 136.142C180.763 136.253 181.044 136.286 181.332 136.241C181.623 136.196 181.891 136.073 182.135 135.872C182.382 135.672 182.577 135.395 182.72 135.042L183.527 133.052L180.716 131.911ZM184.38 133.398L183.643 135.215C183.524 135.51 183.474 135.799 183.493 136.083C183.512 136.369 183.598 136.625 183.752 136.85C183.905 137.078 184.124 137.249 184.408 137.365C184.763 137.509 185.115 137.508 185.463 137.361C185.813 137.215 186.098 136.873 186.315 136.336L187.065 134.488L184.38 133.398Z" fill="#9BA1A0"/>
<path d="M174.923 150.777C174.137 150.3 173.543 149.745 173.142 149.113C172.741 148.481 172.536 147.823 172.526 147.139C172.516 146.455 172.704 145.795 173.09 145.158C173.476 144.522 173.975 144.051 174.587 143.744C175.198 143.437 175.877 143.315 176.622 143.379C177.368 143.443 178.134 143.714 178.921 144.191C179.708 144.669 180.302 145.224 180.702 145.856C181.103 146.488 181.308 147.146 181.319 147.83C181.329 148.514 181.141 149.174 180.755 149.81C180.368 150.447 179.869 150.918 179.258 151.225C178.646 151.532 177.968 151.653 177.222 151.589C176.477 151.526 175.71 151.255 174.923 150.777ZM175.454 149.903C176.1 150.295 176.711 150.518 177.287 150.572C177.861 150.628 178.373 150.542 178.824 150.314C179.273 150.088 179.635 149.749 179.909 149.297C180.184 148.846 180.318 148.367 180.312 147.862C180.305 147.359 180.145 146.865 179.831 146.379C179.517 145.895 179.036 145.458 178.39 145.065C177.744 144.673 177.134 144.449 176.56 144.393C175.985 144.34 175.472 144.426 175.023 144.651C174.572 144.88 174.209 145.22 173.935 145.671C173.661 146.123 173.527 146.6 173.535 147.103C173.54 147.608 173.701 148.103 174.015 148.586C174.328 149.072 174.808 149.511 175.454 149.903Z" fill="#9BA1A0"/>
<path d="M169.72 164.533L169.031 165.333L164.653 161.561C164.201 161.172 163.889 160.718 163.718 160.198C163.547 159.683 163.525 159.145 163.652 158.584C163.782 158.024 164.07 157.485 164.517 156.966C164.964 156.448 165.455 156.083 165.989 155.872C166.525 155.663 167.062 155.604 167.598 155.695C168.135 155.79 168.63 156.032 169.082 156.422L173.459 160.194L172.769 160.994L168.456 157.278C168.133 157 167.785 156.823 167.411 156.748C167.039 156.675 166.667 156.708 166.297 156.846C165.927 156.989 165.583 157.244 165.266 157.612C164.949 157.98 164.747 158.357 164.661 158.745C164.577 159.133 164.6 159.505 164.729 159.86C164.859 160.219 165.085 160.538 165.408 160.816L169.72 164.533Z" fill="#9BA1A0"/>
<path d="M162.853 170.164L163.461 170.878L158.477 175.121L157.869 174.407L159.959 172.629L154.909 166.697L155.714 166.012L160.764 171.943L162.853 170.164Z" fill="#9BA1A0"/>
<path d="M143.542 184.925L142.399 185.458L136.647 180.148L136.554 180.192L136.931 188.011L135.788 188.544L132.097 180.636L132.993 180.218L135.797 186.226L135.874 186.19L135.541 179.028L136.406 178.624L141.682 183.479L141.759 183.443L138.955 177.435L139.85 177.017L143.542 184.925Z" fill="#9BA1A0"/>
<path d="M125.307 183.041L127.643 191.45L122.568 192.859L122.317 191.956L126.374 190.829L125.584 187.988L121.791 189.042L121.54 188.139L125.333 187.085L124.54 184.227L120.417 185.372L120.166 184.469L125.307 183.041Z" fill="#9BA1A0"/>
<path d="M77.4214 184.155L78.4815 184.477L72.8801 191.897L71.8362 191.58L71.3049 182.298L72.3651 182.62L72.7266 190.407L72.7918 190.427L77.4214 184.155ZM76.0396 187.298L71.7663 186.001L72.0386 185.104L76.312 186.401L76.0396 187.298Z" fill="#9BA1A0"/>
<path d="M64.7712 179.72L60.9829 187.582L58.2342 186.258C57.6865 185.994 57.2804 185.681 57.0159 185.321C56.7502 184.962 56.6068 184.583 56.5857 184.181C56.5633 183.783 56.6446 183.392 56.8296 183.008C56.9924 182.67 57.1869 182.42 57.4133 182.258C57.6371 182.094 57.877 181.995 58.1332 181.961C58.3868 181.926 58.641 181.932 58.8958 181.979L58.9328 181.902C58.6996 181.771 58.4985 181.57 58.3293 181.299C58.1602 181.028 58.0628 180.71 58.0371 180.344C58.0114 179.979 58.0985 179.589 58.2982 179.174C58.4882 178.78 58.7485 178.469 59.0794 178.24C59.4102 178.012 59.8132 177.899 60.2885 177.901C60.7637 177.902 61.311 178.053 61.9304 178.351L64.7712 179.72ZM63.4122 180.106L61.5234 179.196C60.9015 178.896 60.4021 178.804 60.0251 178.918C59.6443 179.034 59.3707 179.265 59.2042 179.611C59.076 179.877 59.0254 180.155 59.0525 180.446C59.0784 180.739 59.1841 181.014 59.3696 181.27C59.5538 181.529 59.8174 181.742 60.1603 181.907L62.0952 182.839L63.4122 180.106ZM61.6956 183.668L59.9297 182.817C59.643 182.679 59.3574 182.611 59.0728 182.613C58.7857 182.613 58.5249 182.683 58.2906 182.822C58.0538 182.96 57.8688 183.168 57.7356 183.444C57.5691 183.79 57.5482 184.141 57.6729 184.497C57.7963 184.856 58.119 185.162 58.6411 185.413L60.4378 186.279L61.6956 183.668Z" fill="#9BA1A0"/>
<path d="M44.9516 173.128C45.4781 172.373 46.0695 171.815 46.7257 171.456C47.3818 171.096 48.0516 170.933 48.735 170.966C49.4183 170.999 50.0653 171.229 50.6758 171.655C51.2863 172.08 51.7252 172.608 51.9925 173.238C52.2599 173.868 52.3381 174.553 52.2272 175.293C52.1162 176.033 51.7975 176.78 51.271 177.535C50.7444 178.29 50.153 178.848 49.4969 179.207C48.8407 179.567 48.1709 179.73 47.4876 179.697C46.8042 179.664 46.1573 179.434 45.5468 179.008C44.9363 178.583 44.4973 178.055 44.23 177.425C43.9627 176.795 43.8845 176.11 43.9954 175.37C44.1063 174.63 44.425 173.883 44.9516 173.128ZM45.7904 173.713C45.3581 174.333 45.097 174.928 45.007 175.499C44.9146 176.069 44.968 176.586 45.1671 177.05C45.3638 177.513 45.6789 177.895 46.1123 178.198C46.5457 178.5 47.0147 178.664 47.5194 178.691C48.0216 178.715 48.5252 178.587 49.03 178.305C49.5324 178.022 49.9998 177.57 50.4321 176.95C50.8644 176.33 51.1267 175.736 51.2191 175.166C51.3091 174.595 51.2557 174.078 51.059 173.615C50.8599 173.151 50.5436 172.768 50.1102 172.465C49.6768 172.163 49.209 172 48.7067 171.975C48.2021 171.949 47.6985 172.077 47.1961 172.36C46.6913 172.642 46.2227 173.093 45.7904 173.713Z" fill="#9BA1A0"/>
<path d="M31.5544 167.063L30.7992 166.323L34.8413 162.194C35.2586 161.768 35.7317 161.485 36.2606 161.347C36.7855 161.209 37.324 161.221 37.8762 161.384C38.4264 161.549 38.9461 161.871 39.4354 162.35C39.9247 162.829 40.2576 163.341 40.4342 163.888C40.6088 164.437 40.6336 164.976 40.5087 165.505C40.3797 166.035 40.1066 166.513 39.6893 166.94L35.6472 171.069L34.8919 170.33L38.8744 166.261C39.1725 165.957 39.3708 165.62 39.4694 165.251C39.5659 164.885 39.5569 164.512 39.4424 164.134C39.3238 163.755 39.091 163.396 38.7438 163.056C38.3967 162.716 38.0326 162.491 37.6518 162.381C37.2689 162.272 36.8963 162.271 36.5338 162.378C36.1673 162.484 35.835 162.69 35.5369 162.994L31.5544 167.063Z" fill="#9BA1A0"/>
<path d="M26.3695 159.852L25.6186 160.413L21.7003 155.17L22.4513 154.609L24.0941 156.807L30.3339 152.144L30.9665 152.99L24.7267 157.654L26.3695 159.852Z" fill="#9BA1A0"/>
<path d="M12.864 139.643L12.4041 138.468L18.0683 133.065L18.031 132.97L10.204 132.849L9.74409 131.675L17.8706 128.493L18.2311 129.413L12.0568 131.831L12.0879 131.91L19.2565 132.032L19.6046 132.921L14.4247 137.878L14.4558 137.958L20.63 135.54L20.9905 136.461L12.864 139.643Z" fill="#9BA1A0"/>
<path d="M15.9014 121.564L7.36132 123.362L6.27624 118.208L7.19363 118.015L8.06099 122.135L10.9466 121.527L10.1354 117.674L11.0528 117.481L11.864 121.334L14.7663 120.723L13.8849 116.536L14.8023 116.343L15.9014 121.564Z" fill="#9BA1A0"/>
</svg>
