<svg width="290" height="290" viewBox="0 0 290 290" fill="none" xmlns="http://www.w3.org/2000/svg">
<g clip-path="url(#clip0_403_173)">
<mask id="mask0_403_173" style="mask-type:alpha" maskUnits="userSpaceOnUse" x="0" y="0" width="290" height="290">
<path d="M290 0H0V290H290V0Z" fill="#A1CCC9"/>
</mask>
<g mask="url(#mask0_403_173)">
<path opacity="0.0344828" d="M271.506 24.8576C270.057 26.3777 267.973 27.3179 265.206 27.6233C262.43 27.9297 259.034 27.5882 255.072 26.5994C247.152 24.6218 237.181 20.1072 225.813 13.4053C203.092 0.0100567 174.986 -22.011 146.902 -49.4898C118.817 -76.9685 96.1131 -104.66 82.1049 -127.2C75.097 -138.478 70.2948 -148.419 68.0662 -156.371C66.9519 -160.347 66.4958 -163.777 66.7011 -166.598C66.9042 -169.411 67.7589 -171.556 69.2066 -173.076C70.6555 -174.595 72.7398 -175.535 75.5065 -175.841C78.2823 -176.148 81.679 -175.806 85.6403 -174.817C93.5602 -172.839 103.532 -168.325 114.9 -161.623C137.62 -148.227 165.727 -126.206 193.811 -98.7273C221.896 -71.249 244.6 -43.5577 258.608 -21.017C265.616 -9.73983 270.418 0.20196 272.647 8.15357C273.761 12.1299 274.217 15.5587 274.012 18.3798C273.809 21.1927 272.954 23.3375 271.506 24.8576Z" stroke="#EBF1F5" stroke-width="1.5"/>
<path opacity="0.0689655" d="M261.826 34.9222C260.262 36.3135 258.118 37.0686 255.356 37.1292C252.584 37.1898 249.253 36.5479 245.419 35.2091C237.754 32.5317 228.276 27.1366 217.606 19.4323C196.278 4.03275 170.364 -20.4648 144.939 -50.4157C119.513 -80.3665 99.4306 -110.053 87.5069 -133.823C81.5425 -145.715 77.6446 -156.078 76.1233 -164.223C75.362 -168.295 75.205 -171.763 75.6501 -174.564C76.0931 -177.358 77.1221 -179.427 78.6855 -180.818C80.2475 -182.208 82.3913 -182.964 85.1553 -183.025C87.9271 -183.085 91.2583 -182.443 95.0908 -181.105C102.757 -178.427 112.235 -173.032 122.905 -165.328C144.233 -149.928 170.147 -125.431 195.573 -95.4796C220.997 -65.5288 241.08 -35.8416 253.003 -12.0721C258.969 -0.180149 262.867 10.1819 264.388 18.327C265.149 22.4001 265.306 25.8676 264.861 28.6693C264.418 31.4626 263.389 33.5309 261.826 34.9222Z" stroke="#EBF1F5" stroke-width="1.5"/>
<path opacity="0.103448" d="M251.475 44.1582C249.809 45.4107 247.624 45.9758 244.885 45.7915C242.139 45.6068 238.899 44.6701 235.222 42.9922C227.87 39.6369 218.957 33.4041 209.064 24.7572C189.29 7.47385 165.76 -19.3109 143.18 -51.5041C120.601 -83.6973 103.283 -115.153 93.5286 -139.972C88.6489 -152.388 85.6821 -163.093 84.875 -171.37C84.4715 -175.509 84.615 -178.99 85.2941 -181.751C85.9725 -184.504 87.1681 -186.481 88.8337 -187.733C90.4994 -188.986 92.6843 -189.551 95.4217 -189.367C98.1681 -189.181 101.409 -188.244 105.085 -186.567C112.438 -183.212 121.35 -176.978 131.243 -168.332C151.018 -151.048 174.549 -124.263 197.128 -92.071C219.706 -59.8776 237.024 -28.421 246.78 -3.60286C251.659 8.81355 254.626 19.5177 255.432 27.795C255.836 31.9342 255.693 35.4145 255.013 38.176C254.335 40.9292 253.14 42.9058 251.475 44.1582Z" stroke="#EBF1F5" stroke-width="1.5"/>
<path opacity="0.137931" d="M240.537 52.5074C238.783 53.6119 236.573 53.9832 233.881 53.5563C231.181 53.1281 228.057 51.9043 224.565 49.9009C217.581 45.8944 209.301 38.8727 200.259 29.3505C182.185 10.3174 161.21 -18.5484 141.64 -52.7371C122.069 -86.9261 107.638 -119.911 100.119 -145.59C96.3565 -158.437 94.3404 -169.402 94.2525 -177.749C94.2086 -181.923 94.6472 -185.391 95.556 -188.092C96.4625 -190.783 97.8143 -192.654 99.5688 -193.759C101.323 -194.863 103.533 -195.234 106.225 -194.807C108.925 -194.379 112.049 -193.156 115.541 -191.152C122.525 -187.146 130.804 -180.124 139.847 -170.602C157.92 -151.569 178.895 -122.703 198.466 -88.514C218.035 -54.3253 232.467 -21.3394 239.985 4.33886C243.748 17.1856 245.764 28.1506 245.852 36.4979C245.897 40.6722 245.457 44.1392 244.549 46.8399C243.642 49.5325 242.291 51.4028 240.537 52.5074Z" stroke="#EBF1F5" stroke-width="1.5"/>
<path opacity="0.172414" d="M229.101 59.9129C227.273 60.8617 225.057 61.0367 222.432 60.3708C219.799 59.703 216.814 58.202 213.534 55.8887C206.972 51.2628 199.387 43.5067 191.261 33.1827C175.021 12.5469 156.752 -18.1781 140.329 -54.1009C123.906 -90.0237 112.461 -124.288 107.224 -150.631C104.603 -163.81 103.548 -174.953 104.175 -183.308C104.488 -187.486 105.219 -190.913 106.348 -193.532C107.476 -196.144 108.971 -197.894 110.801 -198.843C112.629 -199.792 114.846 -199.967 117.471 -199.301C120.103 -198.633 123.088 -197.133 126.369 -194.82C132.93 -190.193 140.516 -182.438 148.641 -172.113C164.882 -151.478 183.15 -120.752 199.573 -84.8295C215.996 -48.9068 227.442 -14.643 232.679 11.7001C235.3 24.8797 236.354 36.0226 235.728 44.377C235.414 48.5547 234.684 51.9825 233.554 54.6022C232.426 57.2141 230.931 58.9641 229.101 59.9129Z" stroke="#EBF1F5" stroke-width="1.5"/>
<path opacity="0.206897" d="M217.268 66.3297C215.378 67.1156 213.173 67.0937 210.636 66.1945C208.09 65.2924 205.268 63.526 202.222 60.921C196.132 55.7116 189.297 47.2813 182.148 36.2349C167.857 14.1554 152.426 -18.1932 139.26 -55.5752C126.095 -92.9574 117.707 -128.237 114.78 -155.046C113.316 -168.458 113.224 -179.694 114.557 -187.993C115.224 -192.142 116.238 -195.504 117.579 -198.024C118.916 -200.535 120.544 -202.152 122.432 -202.938C124.321 -203.724 126.527 -203.703 129.065 -202.803C131.61 -201.902 134.432 -200.135 137.477 -197.529C143.568 -192.321 150.402 -183.89 157.552 -172.844C171.842 -150.764 187.274 -118.416 200.44 -81.0337C213.605 -43.6515 221.992 -8.37111 224.919 18.4369C226.383 31.8489 226.476 43.0854 225.143 51.3837C224.476 55.5334 223.461 58.896 222.121 61.4151C220.784 63.9267 219.155 65.5437 217.268 66.3297Z" stroke="#EBF1F5" stroke-width="1.5"/>
<path opacity="0.241379" d="M205.135 71.7192C203.201 72.3368 201.024 72.1183 198.594 70.9927C196.155 69.8637 193.518 67.8459 190.731 64.9694C185.157 59.217 179.122 50.1773 172.997 38.4934C160.759 15.1398 148.265 -18.5847 138.44 -57.1408C128.614 -95.6973 123.333 -131.726 122.724 -158.794C122.419 -172.338 123.286 -183.581 125.309 -191.761C126.322 -195.852 127.611 -199.124 129.149 -201.524C130.685 -203.917 132.43 -205.387 134.363 -206.005C136.298 -206.624 138.473 -206.404 140.905 -205.279C143.344 -204.151 145.981 -202.132 148.768 -199.255C154.342 -193.503 160.377 -184.463 166.5 -172.78C178.74 -149.426 191.234 -115.701 201.058 -77.1454C210.883 -38.5892 216.166 -2.56091 216.775 24.5082C217.08 38.051 216.213 49.2956 214.19 57.4752C213.177 61.5654 211.888 64.8376 210.349 67.2372C208.814 69.6297 207.068 71.1016 205.135 71.7192Z" stroke="#EBF1F5" stroke-width="1.5"/>
<path opacity="0.275862" d="M192.811 76.0505C190.848 76.4953 188.716 76.0821 186.41 74.7391C184.098 73.3922 181.664 71.1384 179.155 68.0126C174.137 61.7615 168.943 52.1817 163.886 39.9498C153.779 15.5006 144.302 -19.3426 137.87 -58.7794C131.439 -98.2165 129.281 -134.718 130.978 -161.844C131.827 -175.414 133.637 -186.582 136.332 -194.581C137.677 -198.582 139.229 -201.739 140.953 -204C142.673 -206.256 144.522 -207.572 146.484 -208.017C148.447 -208.461 150.578 -208.049 152.885 -206.706C155.197 -205.358 157.63 -203.104 160.139 -199.979C165.156 -193.728 170.351 -184.148 175.408 -171.916C185.516 -147.467 194.993 -112.624 201.423 -73.1868C207.855 -33.7501 210.013 2.75228 208.317 29.8775C207.468 43.4482 205.657 54.616 202.963 62.6151C201.616 66.6151 200.066 69.7723 198.342 72.0344C196.622 74.2898 194.772 75.6056 192.811 76.0505Z" stroke="#EBF1F5" stroke-width="1.5"/>
<path opacity="0.310345" d="M180.401 79.3095C178.426 79.5785 176.355 78.9741 174.192 77.4242C172.021 75.8697 169.809 73.3973 167.594 70.0459C163.168 63.3442 158.849 53.2972 154.889 40.6101C146.976 15.251 140.564 -20.4472 137.551 -60.4663C134.537 -100.485 135.495 -137.187 139.468 -164.164C141.455 -177.66 144.188 -188.668 147.527 -196.427C149.195 -200.307 150.994 -203.325 152.889 -205.433C154.778 -207.534 156.716 -208.685 158.692 -208.953C160.668 -209.222 162.738 -208.618 164.903 -207.067C167.072 -205.514 169.286 -203.041 171.499 -199.689C175.926 -192.988 180.246 -182.941 184.205 -170.254C192.119 -144.894 198.53 -109.197 201.544 -69.1774C204.558 -29.1583 203.598 7.54305 199.627 34.5201C197.64 48.0167 194.905 59.0238 191.568 66.7825C189.899 70.6624 188.099 73.6809 186.205 75.7888C184.316 77.8904 182.377 79.0405 180.401 79.3095Z" stroke="#EBF1F5" stroke-width="1.5"/>
<path opacity="0.344828" d="M167.99 81.4963C166.014 81.5878 164.019 80.7971 162.011 79.0522C159.998 77.3021 158.02 74.63 156.115 71.0785C152.306 63.9765 148.886 53.5379 146.046 40.4905C140.367 14.4113 137.048 -21.8756 137.452 -62.1797C137.856 -102.484 141.905 -139.113 148.111 -165.742C151.216 -179.065 154.849 -189.83 158.803 -197.291C160.781 -201.022 162.815 -203.881 164.865 -205.819C166.909 -207.752 168.923 -208.728 170.899 -208.82C172.874 -208.91 174.869 -208.119 176.877 -206.375C178.892 -204.625 180.87 -201.953 182.774 -198.402C186.582 -191.3 190.002 -180.861 192.843 -167.813C198.521 -141.734 201.841 -105.447 201.437 -65.1432C201.033 -24.8391 196.983 11.789 190.777 38.4187C187.673 51.7415 184.04 62.5068 180.085 69.9683C178.107 73.6996 176.075 76.5575 174.023 78.4958C171.979 80.4284 169.966 81.4049 167.99 81.4963Z" stroke="#EBF1F5" stroke-width="1.5"/>
<path opacity="0.37931" d="M155.614 82.6355C153.649 82.5495 151.741 81.579 149.901 79.6523C148.055 77.7199 146.323 74.868 144.737 71.1428C141.567 63.6932 139.065 52.9395 137.356 39.627C133.942 13.0181 133.729 -23.594 137.541 -63.892C141.354 -104.19 148.464 -140.482 156.864 -166.572C161.066 -179.627 165.575 -190.073 170.122 -197.185C172.397 -200.741 174.652 -203.419 176.846 -205.174C179.034 -206.925 181.11 -207.721 183.074 -207.635C185.037 -207.549 186.947 -206.578 188.787 -204.652C190.633 -202.719 192.365 -199.867 193.951 -196.142C197.121 -188.692 199.622 -177.939 201.33 -164.626C204.745 -138.018 204.959 -101.405 201.147 -61.1071C197.335 -20.8092 190.223 15.4823 181.823 41.5739C177.621 54.6276 173.114 65.0744 168.566 72.1861C166.292 75.7423 164.036 78.4196 161.842 80.1751C159.654 81.9254 157.577 82.7215 155.614 82.6355Z" stroke="#EBF1F5" stroke-width="1.5"/>
<path opacity="0.413793" d="M143.264 82.7509C141.322 82.4887 139.509 81.3457 137.846 79.2516C136.179 77.1513 134.702 74.1404 133.445 70.2683C130.933 62.5249 129.364 51.5331 128.801 38.0505C127.676 11.1015 130.58 -25.5765 137.793 -65.584C145.005 -105.591 155.151 -141.291 165.71 -166.663C170.992 -179.357 176.355 -189.413 181.474 -196.126C184.034 -199.483 186.501 -201.961 188.829 -203.522C191.149 -205.079 193.278 -205.691 195.22 -205.428C197.162 -205.165 198.974 -204.023 200.637 -201.928C202.305 -199.828 203.781 -196.818 205.037 -192.946C207.55 -185.202 209.12 -174.21 209.682 -160.727C210.807 -133.779 207.904 -97.1 200.691 -57.0929C193.479 -17.0854 183.331 18.6148 172.774 43.9868C167.491 56.6803 162.128 66.7363 157.009 73.4493C154.45 76.8063 151.983 79.2846 149.654 80.8456C147.334 82.402 145.205 83.013 143.264 82.7509Z" stroke="#EBF1F5" stroke-width="1.5"/>
<path opacity="0.448276" d="M130.987 81.8442C129.079 81.408 127.375 80.1011 125.901 77.8546C124.422 75.6015 123.212 72.4534 122.293 68.4621C120.457 60.4805 119.837 49.329 120.431 35.7724C121.617 8.67538 127.64 -27.8079 138.233 -67.2412C148.827 -106.674 161.968 -141.531 174.636 -166.003C180.974 -178.247 187.166 -187.842 192.831 -194.109C195.663 -197.243 198.327 -199.505 200.776 -200.861C203.216 -202.213 205.386 -202.635 207.294 -202.199C209.202 -201.762 210.906 -200.455 212.38 -198.209C213.859 -195.956 215.069 -192.808 215.988 -188.816C217.825 -180.834 218.444 -169.684 217.851 -156.127C216.665 -129.03 210.641 -92.547 200.048 -53.1133C189.455 -13.6799 176.313 21.1764 163.645 45.6493C157.308 57.8932 151.115 67.4875 145.45 73.7548C142.618 76.8889 139.954 79.1511 137.505 80.5069C135.065 81.8585 132.897 82.2804 130.987 81.8442Z" stroke="#EBF1F5" stroke-width="1.5"/>
<path opacity="0.482759" d="M118.898 79.9024C117.037 79.2952 115.455 77.8335 114.18 75.4508C112.903 73.0613 111.968 69.7985 111.398 65.717C110.256 57.555 110.596 46.3247 112.349 32.7924C115.854 5.74396 124.977 -30.2792 138.898 -68.8512C152.821 -107.423 168.885 -141.181 183.587 -164.577C190.942 -176.281 197.926 -185.344 204.099 -191.119C207.186 -194.007 210.031 -196.037 212.582 -197.178C215.126 -198.315 217.32 -198.544 219.181 -197.936C221.041 -197.329 222.625 -195.868 223.899 -193.484C225.176 -191.095 226.11 -187.833 226.681 -183.751C227.823 -175.588 227.483 -164.358 225.73 -150.826C222.224 -123.778 213.102 -87.7545 199.179 -49.1827C185.258 -10.6106 169.194 23.1475 154.491 46.5427C147.137 58.2473 140.152 67.3097 133.98 73.0853C130.893 75.9734 128.049 78.0029 125.497 79.1433C122.953 80.2803 120.76 80.5097 118.898 79.9024Z" stroke="#EBF1F5" stroke-width="1.5"/>
<path opacity="0.517241" d="M107.124 76.9266C105.325 76.1524 103.875 74.5463 102.814 72.0449C101.749 69.536 101.099 66.1823 100.883 62.0405C100.449 53.7578 101.753 42.5315 104.661 29.1237C110.473 2.32406 122.643 -32.9716 139.806 -70.3949C156.97 -107.819 175.85 -140.226 192.483 -162.367C200.806 -173.444 208.532 -181.907 215.167 -187.147C218.486 -189.767 221.489 -191.548 224.126 -192.463C226.753 -193.377 228.955 -193.412 230.753 -192.637C232.553 -191.864 234.001 -190.257 235.062 -187.755C236.128 -185.247 236.777 -181.893 236.994 -177.752C237.429 -169.469 236.125 -158.243 233.216 -144.835C227.405 -118.035 215.234 -82.7392 198.071 -45.3159C180.908 -7.89268 162.027 24.5148 145.393 46.6564C137.072 57.7338 129.346 66.1959 122.711 71.4357C119.392 74.056 116.387 75.8371 113.752 76.7529C111.124 77.6662 108.922 77.7009 107.124 76.9266Z" stroke="#EBF1F5" stroke-width="1.5"/>
<path opacity="0.551724" d="M95.779 72.9309C94.0569 71.9947 92.7543 70.2559 91.9146 67.6538C91.0705 65.044 90.7139 61.6243 90.8547 57.4527C91.1374 49.1108 93.3997 37.9722 97.4442 24.7892C105.53 -1.56098 120.668 -35.8634 140.953 -71.855C161.238 -107.846 182.799 -138.657 201.242 -159.376C210.47 -169.741 218.88 -177.538 225.928 -182.202C229.451 -184.533 232.592 -186.051 235.292 -186.736C237.982 -187.417 240.174 -187.257 241.896 -186.321C243.618 -185.384 244.92 -183.646 245.761 -181.044C246.603 -178.434 246.96 -175.014 246.819 -170.842C246.538 -162.501 244.276 -151.362 240.23 -138.179C232.145 -111.829 217.007 -77.5263 196.721 -41.5348C176.436 -5.54318 154.875 25.2674 136.432 45.9861C127.205 56.3517 118.796 64.1483 111.747 68.8114C108.223 71.1433 105.082 72.6618 102.384 73.3459C99.6919 74.0278 97.4998 73.867 95.779 72.9309Z" stroke="#EBF1F5" stroke-width="1.5"/>
<path opacity="0.586207" d="M84.9644 67.9463C83.3333 66.8549 82.1895 64.9958 81.5776 62.3121C80.9651 59.6206 80.905 56.1601 81.4045 51.9901C82.4033 43.6511 85.6108 32.684 90.7671 19.8255C101.072 -5.87637 119.071 -38.9249 142.331 -73.2101C165.59 -107.496 189.671 -136.472 209.785 -155.609C219.847 -165.181 228.876 -172.252 236.283 -176.302C239.986 -178.326 243.238 -179.57 245.979 -180.017C248.712 -180.461 250.876 -180.105 252.506 -179.014C254.137 -177.923 255.281 -176.064 255.893 -173.38C256.506 -170.688 256.566 -167.227 256.066 -163.057C255.067 -154.718 251.86 -143.752 246.704 -130.893C236.399 -105.191 218.4 -72.1425 195.14 -37.8572C171.881 -3.57212 147.799 25.4052 127.686 44.5407C117.623 54.1141 108.594 61.1846 101.188 65.2342C97.485 67.2592 94.233 68.5029 91.492 68.949C88.7589 69.3937 86.5942 69.0378 84.9644 67.9463Z" stroke="#EBF1F5" stroke-width="1.5"/>
<path opacity="0.62069" d="M74.7721 62.0121C73.2465 60.7728 72.2704 58.807 71.8945 56.0618C71.5169 53.3083 71.7559 49.833 72.6111 45.6957C74.3226 37.4223 78.4546 26.7097 84.6837 14.273C97.1366 -10.5851 117.865 -42.1276 143.927 -74.4429C169.989 -106.758 196.408 -133.678 218.039 -151.081C228.86 -159.788 238.439 -166.076 246.146 -169.48C250 -171.181 253.337 -172.141 256.099 -172.345C258.852 -172.547 260.972 -171.999 262.498 -170.76C264.023 -169.52 265.001 -167.554 265.375 -164.808C265.753 -162.056 265.514 -158.581 264.659 -154.443C262.949 -146.17 258.815 -135.457 252.586 -123.02C240.133 -98.1621 219.405 -66.6198 193.343 -34.3044C167.282 -1.98904 140.862 24.931 119.231 42.3341C108.409 51.0408 98.8304 57.3293 91.1236 60.7326C87.2702 62.4346 83.9329 63.3931 81.1713 63.597C78.4175 63.8003 76.2977 63.2514 74.7721 62.0121Z" stroke="#EBF1F5" stroke-width="1.5"/>
<path opacity="0.655172" d="M65.2838 55.1802C63.8753 53.8019 63.0742 51.7437 62.9386 48.9571C62.8013 46.1622 63.338 42.698 64.5443 38.6247C66.9555 30.479 71.983 20.102 79.2416 8.18236C93.7507 -15.6428 117.056 -45.4367 145.724 -75.5327C174.393 -105.629 202.951 -130.282 225.934 -145.816C237.432 -153.587 247.487 -159.043 255.434 -161.773C259.408 -163.137 262.805 -163.802 265.565 -163.761C268.318 -163.722 270.375 -162.982 271.784 -161.605C273.192 -160.226 273.993 -158.168 274.129 -155.382C274.266 -152.586 273.73 -149.122 272.523 -145.048C270.112 -136.902 265.085 -126.525 257.826 -114.606C243.317 -90.7816 220.012 -60.9873 191.343 -30.8914C162.675 -0.795501 134.116 23.8577 111.134 39.3912C99.6365 47.1627 89.5805 52.6191 81.6341 55.3484C77.6596 56.7131 74.2631 57.3783 71.5026 57.3376C68.7499 57.2971 66.6923 56.5584 65.2838 55.1802Z" stroke="#EBF1F5" stroke-width="1.5"/>
<path opacity="0.689655" d="M56.5722 47.5049C55.2936 45.9975 54.6758 43.8619 54.7793 41.0546C54.8849 38.2391 55.7164 34.8119 57.2639 30.8332C60.3614 22.8769 66.2473 12.9147 74.4813 1.6031C90.9415 -21.0064 116.649 -48.8222 147.707 -76.4646C178.766 -104.107 209.247 -126.299 233.405 -139.84C245.492 -146.614 255.946 -151.195 264.071 -153.227C268.135 -154.244 271.565 -154.608 274.303 -154.323C277.032 -154.037 279.012 -153.115 280.291 -151.607C281.571 -150.099 282.189 -147.964 282.084 -145.157C281.98 -142.341 281.148 -138.913 279.6 -134.935C276.502 -126.979 270.617 -117.016 262.382 -105.705C245.923 -83.0952 220.215 -55.2795 189.156 -27.6371C158.097 0.00520638 127.617 22.1981 103.459 35.7385C91.3729 42.5128 80.9178 47.0932 72.7922 49.1252C68.7294 50.1413 65.2983 50.5068 62.5617 50.2211C59.8315 49.936 57.8521 49.0124 56.5722 47.5049Z" stroke="#EBF1F5" stroke-width="1.5"/>
<path opacity="0.724138" d="M48.7088 39.0485C47.5675 37.4225 47.1387 35.2252 47.4838 32.4182C47.8298 29.6028 48.9502 26.2385 50.8302 22.3847C54.5901 14.6778 61.2907 5.20634 70.441 -5.41009C88.7285 -26.6302 116.644 -52.2518 149.859 -77.2239C183.074 -102.197 215.244 -121.753 240.394 -133.191C252.976 -138.913 263.749 -142.58 271.991 -143.896C276.112 -144.554 279.55 -144.616 282.243 -144.086C284.928 -143.559 286.814 -142.456 287.954 -140.83C289.095 -139.204 289.524 -137.006 289.179 -134.199C288.831 -131.384 287.711 -128.02 285.831 -124.165C282.072 -116.459 275.37 -106.987 266.222 -96.3715C247.934 -75.1509 220.017 -49.5295 186.804 -24.5571C153.589 0.415023 121.418 19.9714 96.2681 31.4094C83.6862 37.1318 72.9132 40.7983 64.671 42.1149C60.55 42.7733 57.1125 42.8353 54.4197 42.3054C51.7347 41.777 49.8488 40.6745 48.7088 39.0485Z" stroke="#EBF1F5" stroke-width="1.5"/>
<path opacity="0.758621" d="M41.7489 29.8809C40.7573 28.148 40.5204 25.905 41.1044 23.1191C41.6905 20.3249 43.0928 17.0488 45.29 13.3488C49.6856 5.94986 57.1519 -2.95803 67.1477 -12.7972C87.1263 -32.4638 117.041 -55.6905 152.159 -77.7947C187.278 -99.8988 220.895 -116.662 246.843 -125.902C259.825 -130.526 270.834 -133.247 279.128 -133.834C283.277 -134.128 286.693 -133.885 289.321 -133.115C291.941 -132.345 293.717 -131.071 294.709 -129.338C295.702 -127.605 295.939 -125.362 295.355 -122.576C294.769 -119.782 293.366 -116.505 291.169 -112.806C286.774 -105.407 279.307 -96.4985 269.312 -86.6599C249.333 -66.9933 219.418 -43.7666 184.299 -21.6625C149.181 0.441708 115.564 17.2042 89.6163 26.4449C76.6342 31.0681 65.6251 33.7891 57.331 34.3773C53.1826 34.6715 49.7655 34.4281 47.139 33.6569C44.5188 32.8879 42.7419 31.614 41.7489 29.8809Z" stroke="#EBF1F5" stroke-width="1.5"/>
<path opacity="0.793103" d="M35.751 20.0703C34.9147 18.2425 34.8724 15.9701 35.6911 13.2261C36.5132 10.4738 38.1864 7.31049 40.6855 3.79271C45.6835 -3.24203 53.8602 -11.5177 64.6269 -20.5029C86.1464 -38.4626 117.834 -59.1103 154.591 -78.1682C191.347 -97.2256 226.153 -111.056 252.702 -118.02C265.983 -121.505 277.145 -123.255 285.428 -123.107C289.57 -123.033 292.941 -122.484 295.483 -121.476C298.017 -120.471 299.671 -119.034 300.506 -117.207C301.342 -115.379 301.385 -113.107 300.566 -110.362C299.744 -107.61 298.07 -104.446 295.571 -100.929C290.573 -93.894 282.397 -85.6185 271.63 -76.6334C250.111 -58.6737 218.423 -38.026 181.666 -18.9679C144.91 0.0899633 110.104 13.9202 83.5551 20.8842C70.2735 24.3683 59.1122 26.1189 50.829 25.9706C46.6867 25.8964 43.3163 25.3479 40.7742 24.3398C38.241 23.3347 36.5859 21.8979 35.751 20.0703Z" stroke="#EBF1F5" stroke-width="1.5"/>
<path opacity="0.827586" d="M30.7573 9.69131C30.0847 7.78165 30.2371 5.49657 31.2863 2.81475C32.3375 0.124946 34.2691 -2.9017 37.0522 -6.21037C42.6155 -12.827 51.4409 -20.406 62.8967 -28.4662C85.7956 -44.5769 119.017 -62.4791 157.131 -78.333C195.246 -94.187 230.976 -104.966 257.923 -109.588C271.404 -111.902 282.631 -112.663 290.839 -111.775C294.944 -111.331 298.241 -110.48 300.678 -109.241C303.106 -108.007 304.625 -106.416 305.297 -104.506C305.97 -102.596 305.818 -100.312 304.768 -97.63C303.717 -94.9398 301.786 -91.9139 299.003 -88.605C293.439 -81.9882 284.614 -74.4092 273.158 -66.349C250.259 -50.2383 217.038 -32.3361 178.923 -16.4822C140.809 -0.628296 105.078 10.1512 78.1313 14.7738C64.6503 17.0866 53.4241 17.8483 45.2152 16.9603C41.1108 16.5164 37.8135 15.6649 35.3765 14.426C32.9483 13.1909 31.4299 11.6008 30.7573 9.69131Z" stroke="#EBF1F5" stroke-width="1.5"/>
<path opacity="0.862069" d="M26.8069 -1.18121C26.3021 -3.15916 26.6506 -5.44045 27.9207 -8.03986C29.1942 -10.6472 31.3705 -13.5141 34.4157 -16.5881C40.5034 -22.7355 49.9107 -29.5576 61.97 -36.6276C86.0746 -50.7593 120.577 -65.7667 159.76 -78.2794C198.941 -90.7922 235.325 -98.4219 262.463 -100.654C276.04 -101.771 287.247 -101.532 295.317 -99.9061C299.352 -99.0919 302.553 -97.9422 304.864 -96.4806C307.168 -95.022 308.539 -93.2899 309.044 -91.3124C309.547 -89.3335 309.2 -87.052 307.93 -84.4532C306.655 -81.846 304.479 -78.979 301.435 -75.905C295.346 -69.7577 285.94 -62.9355 273.88 -55.8654C249.776 -41.7338 215.273 -26.7264 176.091 -14.2138C136.908 -1.70102 100.524 5.92864 73.3878 8.16087C59.8109 9.27764 48.6037 9.03854 40.5337 7.41248C36.4987 6.59945 33.2977 5.44927 30.9863 3.98716C28.6823 2.52941 27.3116 0.796736 26.8069 -1.18121Z" stroke="#EBF1F5" stroke-width="1.5"/>
<path opacity="0.896552" d="M23.9359 -12.4731C23.6044 -14.5053 24.1448 -16.7658 25.6263 -19.2634C27.1139 -21.7684 29.5186 -24.4532 32.8015 -27.2683C39.3686 -32.8977 49.2861 -38.9074 61.8569 -44.928C86.9846 -56.9621 122.504 -68.9433 162.457 -77.9982C202.408 -87.0534 239.165 -91.454 266.285 -91.2616C279.854 -91.1664 290.956 -89.9196 298.824 -87.563C302.76 -86.3838 305.837 -84.9413 308.006 -83.2651C310.169 -81.5938 311.381 -79.7303 311.712 -77.6979C312.043 -75.6657 311.504 -73.4051 310.022 -70.9076C308.534 -68.4028 306.131 -65.7178 302.846 -62.9028C296.279 -57.2733 286.362 -51.2638 273.791 -45.243C248.665 -33.2088 213.143 -21.2278 173.192 -12.1727C133.241 -3.11753 96.4839 1.28302 69.3627 1.09088C55.7942 0.994746 44.6935 -0.25096 36.8238 -2.60829C32.8883 -3.78718 29.8109 -5.22979 27.6427 -6.90595C25.4793 -8.57719 24.2673 -10.4407 23.9359 -12.4731Z" stroke="#EBF1F5" stroke-width="1.5"/>
<path opacity="0.931035" d="M22.1721 -24.1049C22.0154 -26.1765 22.7437 -28.3992 24.4271 -30.7749C26.1164 -33.1578 28.7305 -35.6388 32.2281 -38.1717C39.2231 -43.2366 49.5761 -48.382 62.5625 -53.2998C88.5188 -63.1296 124.785 -71.9709 165.198 -77.4737C205.611 -82.9767 242.459 -84.0908 269.353 -81.4576C282.808 -80.1402 293.717 -77.8899 301.325 -74.8134C305.13 -73.275 308.06 -71.5488 310.07 -69.6696C312.073 -67.796 313.118 -65.8146 313.273 -63.743C313.428 -61.6714 312.701 -59.4487 311.017 -57.073C309.329 -54.6901 306.714 -52.2089 303.216 -49.6762C296.221 -44.6114 285.869 -39.4659 272.883 -34.5481C246.925 -24.7183 210.66 -15.877 170.247 -10.3741C129.834 -4.87116 92.9865 -3.7571 66.0918 -6.39028C52.636 -7.70771 41.728 -9.95793 34.1201 -13.0345C30.3154 -14.5729 27.3848 -16.2991 25.375 -18.1783C23.3712 -20.0518 22.3275 -22.0332 22.1721 -24.1049Z" stroke="#EBF1F5" stroke-width="1.5"/>
<path opacity="0.965517" d="M21.5453 -35.9775C21.5675 -38.0716 22.4784 -40.2378 24.3501 -42.4714C26.2277 -44.7119 29.0321 -46.9675 32.717 -49.1955C40.0867 -53.6508 50.7936 -57.8845 64.0949 -61.6522C90.6798 -69.1834 127.407 -74.7932 167.967 -76.6773C208.526 -78.5614 245.173 -76.3602 271.631 -71.2931C284.867 -68.758 295.498 -65.5156 302.784 -61.7411C306.427 -59.8536 309.187 -57.8565 311.022 -55.7884C312.85 -53.7266 313.718 -51.6431 313.696 -49.549C313.675 -47.4549 312.764 -45.2888 310.892 -43.0551C309.015 -40.8148 306.21 -38.5589 302.524 -36.331C295.154 -31.8757 284.448 -27.6422 271.148 -23.8743C244.563 -16.3432 207.835 -10.7334 167.276 -8.84922C126.717 -6.9652 90.0692 -9.16639 63.6117 -14.2335C50.3752 -16.7686 39.7444 -20.011 32.4589 -23.7854C28.8156 -25.6729 26.0539 -27.6702 24.2204 -29.7381C22.3915 -31.7999 21.5243 -33.8835 21.5453 -35.9775Z" stroke="#EBF1F5" stroke-width="1.5"/>
</g>
</g>
<defs>
<clipPath id="clip0_403_173">
<rect width="290" height="290" fill="white"/>
</clipPath>
</defs>
</svg>
