<svg width="32" height="32" viewBox="0 0 32 32" fill="none" xmlns="http://www.w3.org/2000/svg">
<g clip-path="url(#clip0_1310_35)">
<circle cx="16" cy="16" r="16" fill="#070707"/>
<path d="M11.5469 16C11.5469 15.1458 11.7552 14.3672 12.1719 13.6641C12.5885 12.9609 13.1484 12.401 13.8516 11.9844C14.5547 11.5677 15.3333 11.3594 16.1875 11.3594C16.8854 11.3594 17.5286 11.5026 18.1172 11.7891C18.7057 12.0755 19.1979 12.4687 19.5938 12.9687C19.9948 13.4635 20.263 14.0286 20.3984 14.6641H18.9453C18.7891 14.0964 18.4557 13.6328 17.9453 13.2734C17.4349 12.9141 16.849 12.7344 16.1875 12.7344C15.5885 12.7344 15.0417 12.8828 14.5469 13.1797C14.0521 13.4714 13.6563 13.8646 13.3594 14.3594C13.0677 14.849 12.9219 15.3958 12.9219 16C12.9219 16.599 13.0677 17.1458 13.3594 17.6406C13.6563 18.1354 14.0521 18.5312 14.5469 18.8281C15.0417 19.1198 15.5885 19.2656 16.1875 19.2656C16.849 19.2656 17.4167 19.0859 17.8906 18.7266C18.3646 18.3672 18.6823 17.9036 18.8437 17.3359H20.2891C20.1589 17.9714 19.9036 18.5391 19.5234 19.0391C19.1432 19.5339 18.6667 19.9245 18.0938 20.2109C17.5208 20.4974 16.8854 20.6406 16.1875 20.6406C15.3333 20.6406 14.5547 20.4323 13.8516 20.0156C13.1484 19.599 12.5885 19.0391 12.1719 18.3359C11.7552 17.6328 11.5469 16.8542 11.5469 16ZM16.0625 24.25C14.9271 24.25 13.8594 24.0365 12.8594 23.6094C11.8646 23.1823 10.987 22.5911 10.2266 21.8359C9.47135 21.0755 8.8776 20.1979 8.44531 19.2031C8.01823 18.2083 7.80729 17.1406 7.8125 16C7.81771 14.8594 8.03385 13.7917 8.46094 12.7969C8.89323 11.8021 9.48698 10.9271 10.2422 10.1719C10.9974 9.41146 11.8724 8.81771 12.8672 8.39062C13.862 7.96354 14.9271 7.75 16.0625 7.75C17.2031 7.75 18.2708 7.96354 19.2656 8.39062C20.2656 8.81771 21.1406 9.41146 21.8906 10.1719C22.6458 10.9271 23.237 11.8021 23.6641 12.7969C24.0911 13.7917 24.3073 14.8594 24.3125 16C24.3177 17.1406 24.1068 18.2083 23.6797 19.2031C23.2526 20.1979 22.6615 21.0755 21.9063 21.8359C21.151 22.5911 20.2734 23.1823 19.2734 23.6094C18.2734 24.0365 17.2031 24.25 16.0625 24.25ZM16.0625 22.875C17.0156 22.875 17.9089 22.6979 18.7422 22.3437C19.5755 21.9844 20.3047 21.4922 20.9297 20.8672C21.5599 20.237 22.0521 19.5052 22.4063 18.6719C22.7656 17.8385 22.9427 16.9505 22.9375 16.0078C22.9323 15.0547 22.75 14.1615 22.3906 13.3281C22.0365 12.4948 21.5443 11.7656 20.9141 11.1406C20.2891 10.5104 19.5625 10.0182 18.7344 9.66406C17.9063 9.30469 17.0156 9.125 16.0625 9.125C15.1146 9.125 14.2266 9.30469 13.3984 9.66406C12.5703 10.0182 11.8411 10.5104 11.2109 11.1406C10.5859 11.7708 10.0938 12.5026 9.73438 13.3359C9.375 14.1641 9.19271 15.0547 9.1875 16.0078C9.18229 16.9505 9.35677 17.8385 9.71094 18.6719C10.0703 19.5 10.5651 20.2292 11.1953 20.8594C11.8255 21.4844 12.5573 21.9766 13.3906 22.3359C14.224 22.6953 15.1146 22.875 16.0625 22.875Z" fill="white"/>
</g>
<defs>
<clipPath id="clip0_1310_35">
<rect width="32" height="32" fill="white"/>
</clipPath>
</defs>
</svg>
