<svg width="256" height="256" viewBox="0 0 256 256" fill="none" xmlns="http://www.w3.org/2000/svg">
<g clip-path="url(#clip0_1310_32)">
<circle cx="128" cy="128" r="128" fill="#070707"/>
<path d="M94.3409 127.818C94.3409 121.606 95.8561 115.943 98.8864 110.83C101.917 105.716 105.989 101.644 111.102 98.6136C116.216 95.5833 121.879 94.0682 128.091 94.0682C133.167 94.0682 137.845 95.1098 142.125 97.1932C146.405 99.2765 149.985 102.136 152.864 105.773C155.78 109.371 157.731 113.481 158.716 118.102H148.148C147.011 113.973 144.587 110.602 140.875 107.989C137.163 105.375 132.902 104.068 128.091 104.068C123.735 104.068 119.758 105.148 116.159 107.307C112.561 109.428 109.682 112.288 107.523 115.886C105.402 119.447 104.341 123.424 104.341 127.818C104.341 132.174 105.402 136.152 107.523 139.75C109.682 143.348 112.561 146.227 116.159 148.386C119.758 150.508 123.735 151.568 128.091 151.568C132.902 151.568 137.03 150.261 140.477 147.648C143.924 145.034 146.235 141.663 147.409 137.534H157.92C156.973 142.155 155.117 146.284 152.352 149.92C149.587 153.519 146.121 156.36 141.955 158.443C137.788 160.527 133.167 161.568 128.091 161.568C121.879 161.568 116.216 160.053 111.102 157.023C105.989 153.992 101.917 149.92 98.8864 144.807C95.8561 139.693 94.3409 134.03 94.3409 127.818ZM127.182 187.818C118.924 187.818 111.159 186.265 103.886 183.159C96.6515 180.053 90.2689 175.754 84.7386 170.261C79.2462 164.731 74.928 158.348 71.7841 151.114C68.678 143.879 67.1439 136.114 67.1818 127.818C67.2197 119.523 68.7917 111.758 71.8977 104.523C75.0417 97.2879 79.3598 90.9242 84.8523 85.4318C90.3447 79.9015 96.7083 75.5833 103.943 72.4773C111.178 69.3712 118.924 67.8182 127.182 67.8182C135.477 67.8182 143.242 69.3712 150.477 72.4773C157.75 75.5833 164.114 79.9015 169.568 85.4318C175.061 90.9242 179.36 97.2879 182.466 104.523C185.572 111.758 187.144 119.523 187.182 127.818C187.22 136.114 185.686 143.879 182.58 151.114C179.473 158.348 175.174 164.731 169.682 170.261C164.189 175.754 157.807 180.053 150.534 183.159C143.261 186.265 135.477 187.818 127.182 187.818ZM127.182 177.818C134.114 177.818 140.61 176.53 146.67 173.955C152.731 171.341 158.034 167.761 162.58 163.216C167.163 158.633 170.742 153.311 173.318 147.25C175.932 141.189 177.22 134.731 177.182 127.875C177.144 120.943 175.818 114.447 173.205 108.386C170.629 102.326 167.049 97.0227 162.466 92.4773C157.92 87.8939 152.636 84.3144 146.614 81.7386C140.591 79.125 134.114 77.8182 127.182 77.8182C120.288 77.8182 113.83 79.125 107.807 81.7386C101.784 84.3144 96.4811 87.8939 91.8977 92.4773C87.3523 97.0606 83.7727 102.383 81.1591 108.443C78.5455 114.466 77.2197 120.943 77.1818 127.875C77.1439 134.731 78.4129 141.189 80.9886 147.25C83.6023 153.273 87.2008 158.576 91.7841 163.159C96.3674 167.705 101.689 171.284 107.75 173.898C113.811 176.511 120.288 177.818 127.182 177.818Z" fill="white"/>
</g>
<defs>
<clipPath id="clip0_1310_32">
<rect width="256" height="256" fill="white"/>
</clipPath>
</defs>
</svg>
